<?xml version="1.0" standalone="no"?>
<!DOCTYPE svg PUBLIC "-//W3C//DTD SVG 20010904//EN"
 "http://www.w3.org/TR/2001/REC-SVG-20010904/DTD/svg10.dtd">
<svg version="1.0" xmlns="http://www.w3.org/2000/svg"
 width="180.000000pt" height="180.000000pt" viewBox="0 0 180.000000 180.000000"
 preserveAspectRatio="xMidYMid meet">

<g transform="translate(0.000000,180.000000) scale(0.100000,-0.100000)"
fill="#000000" stroke="none">
<path d="M237 1789 c-94 -22 -165 -80 -206 -169 l-26 -55 0 -665 0 -665 26
-55 c33 -70 79 -116 149 -149 l55 -26 665 0 665 0 55 26 c70 33 116 79 149
149 l26 55 0 665 0 665 -26 55 c-33 70 -79 116 -149 149 l-55 26 -645 2 c-357
1 -662 -3 -683 -8z m877 -394 c128 -33 196 -118 196 -242 0 -98 -40 -171 -115
-211 l-30 -15 35 -15 c92 -37 146 -116 157 -226 11 -120 -45 -229 -142 -276
-93 -45 -134 -50 -437 -50 l-288 0 0 525 0 525 283 0 c221 0 296 -3 341 -15z"/>
<path d="M678 1254 c-5 -4 -8 -70 -8 -146 l0 -138 168 0 c191 0 237 13 267 70
20 38 22 110 4 151 -22 54 -55 63 -249 67 -96 2 -178 1 -182 -4z"/>
<path d="M678 834 c-5 -4 -8 -79 -8 -166 l0 -160 198 4 c222 3 247 10 284 78
25 46 21 143 -7 182 -40 53 -74 61 -275 66 -102 2 -188 1 -192 -4z"/>
</g>
</svg>
