<?xml version="1.0" standalone="no"?>
<!DOCTYPE svg PUBLIC "-//W3C//DTD SVG 20010904//EN"
 "http://www.w3.org/TR/2001/REC-SVG-20010904/DTD/svg10.dtd">
<svg version="1.0" xmlns="http://www.w3.org/2000/svg"
 width="32.000000pt" height="32.000000pt" viewBox="0 0 32.000000 32.000000"
 preserveAspectRatio="xMidYMid meet">

<g transform="translate(0.000000,32.000000) scale(0.100000,-0.100000)"
fill="#000000" stroke="none">
<path d="M20 300 c-18 -18 -20 -33 -20 -140 0 -107 2 -122 20 -140 18 -18 33
-20 140 -20 161 0 160 -1 160 160 0 161 1 160 -160 160 -107 0 -122 -2 -140
-20z m198 -62 c15 -15 16 -55 1 -64 -8 -5 -6 -10 5 -16 9 -5 16 -22 16 -38 0
-42 -34 -62 -102 -58 l-53 3 -3 93 -3 92 64 0 c36 0 68 -5 75 -12z"/>
<path d="M120 195 c0 -19 5 -25 23 -25 30 0 62 24 53 38 -4 7 -23 12 -42 12
-30 0 -34 -3 -34 -25z"/>
<path d="M120 120 c0 -28 3 -30 35 -30 43 0 67 33 36 50 -11 5 -31 10 -45 10
-22 0 -26 -4 -26 -30z"/>
</g>
</svg>
