<?xml version="1.0" standalone="no"?>
<!DOCTYPE svg PUBLIC "-//W3C//DTD SVG 20010904//EN"
 "http://www.w3.org/TR/2001/REC-SVG-20010904/DTD/svg10.dtd">
<svg version="1.0" xmlns="http://www.w3.org/2000/svg"
 width="1280.000000pt" height="853.000000pt" viewBox="0 0 1280.000000 853.000000"
 preserveAspectRatio="xMidYMid meet">

<g transform="translate(0.000000,853.000000) scale(0.100000,-0.100000)"
fill="#000000" stroke="none">
<path d="M0 6984 c0 -1027 3 -1543 10 -1539 6 3 10 12 10 20 0 7 6 16 12 18
10 4 10 6 1 6 -7 1 -13 5 -13 11 0 5 7 7 15 4 9 -4 16 3 20 19 4 14 13 28 21
31 11 4 12 10 4 25 -5 11 -10 26 -9 33 0 7 5 2 11 -12 9 -20 12 -22 15 -8 2 9
-1 26 -7 37 -9 18 -8 21 9 21 11 0 23 5 26 10 4 7 -3 9 -22 5 -22 -5 -25 -4
-13 4 13 10 13 12 0 22 -11 8 -7 9 17 4 21 -4 33 -3 33 4 0 6 -7 8 -15 5 -8
-4 -15 -1 -15 5 0 6 7 11 15 11 15 0 16 24 2 47 -5 8 1 15 18 19 14 3 23 9 20
12 -3 3 2 14 12 24 18 20 4 25 -15 6 -23 -23 -12 4 14 35 20 23 22 32 12 38
-10 7 -9 9 5 9 20 0 23 16 5 24 -7 3 1 4 17 1 17 -2 24 -2 17 1 -17 8 -15 27
2 21 8 -3 17 1 20 9 5 12 1 14 -17 9 -15 -5 -19 -4 -12 3 6 5 19 12 30 14 15
2 20 11 20 33 1 26 5 30 28 30 14 -1 24 1 21 4 -2 2 6 15 18 29 23 23 23 24 3
39 -20 15 -20 15 3 8 14 -4 22 -2 22 5 0 7 7 10 15 7 8 -4 17 -2 20 3 4 6 -1
10 -9 10 -26 0 -18 20 11 31 22 8 24 12 13 19 -12 8 -10 10 8 10 12 0 22 5 22
10 0 6 7 10 16 10 8 0 13 4 10 9 -3 5 5 16 18 24 18 12 26 13 36 4 10 -10 12
-8 7 5 -4 13 6 26 38 49 25 18 45 37 45 42 0 5 6 7 13 4 8 -3 20 3 28 14 7 10
20 19 28 19 7 0 22 9 32 21 10 12 23 18 30 13 7 -4 9 -3 6 3 -7 11 17 34 76
73 20 14 37 29 37 33 0 4 16 24 35 44 19 20 35 44 35 55 0 10 5 18 11 18 5 0
8 4 4 9 -3 5 -1 12 4 15 5 4 8 29 7 56 -2 29 1 50 7 50 6 0 3 6 -8 13 -10 8
-15 19 -11 25 4 7 2 12 -5 12 -15 0 -4 61 14 72 8 5 6 8 -6 8 -18 0 -18 8 0
58 3 6 0 12 -7 12 -10 0 -9 4 1 16 10 13 10 17 -2 25 -13 8 -5 13 16 9 6 -1 4
4 -2 11 -7 7 -13 20 -12 29 0 10 2 11 6 3 2 -7 9 -13 14 -13 6 0 7 5 4 10 -4
6 -1 17 5 25 8 9 8 15 2 15 -6 0 -13 -6 -16 -12 -3 -7 -5 -4 -3 7 1 11 10 20
19 20 25 0 32 12 10 19 -14 5 -18 13 -15 31 3 15 10 22 19 18 19 -7 18 14 -1
24 -11 7 -8 12 15 28 30 20 39 35 20 35 -5 0 -10 5 -10 11 0 5 5 7 11 3 8 -4
9 1 5 17 -3 13 -3 18 0 12 3 -7 13 -13 22 -12 11 0 12 2 5 6 -7 2 -13 11 -13
18 0 7 6 13 13 12 33 -1 47 4 47 18 0 8 -7 15 -15 15 -8 0 -15 5 -15 10 0 6 7
10 15 10 18 0 20 16 3 23 -10 3 -8 10 5 23 13 14 17 15 17 4 0 -13 2 -13 10 0
15 23 12 33 -7 26 -13 -6 -12 -1 5 17 14 15 20 30 16 41 -5 12 -2 15 12 10 18
-5 18 -5 2 6 -23 14 -26 90 -3 90 8 0 15 6 15 14 0 7 6 18 13 24 10 9 17 6 27
-8 24 -34 31 -22 9 15 -24 40 -19 42 54 20 26 -8 47 -10 47 -5 0 6 -10 10 -23
10 -35 0 -47 17 -35 51 5 16 14 29 19 29 4 0 6 -7 3 -15 -8 -19 3 -19 22 -1 8
8 29 13 51 11 21 -1 30 -1 21 2 -19 5 -23 20 -9 42 6 10 13 11 29 2 11 -6 26
-11 32 -11 19 0 -1 21 -34 36 -17 7 -24 13 -15 14 21 0 32 77 12 84 -18 7 -16
36 1 36 8 0 17 8 19 18 4 14 5 13 6 -4 0 -11 -4 -25 -11 -32 -9 -9 -9 -12 4
-12 19 0 34 86 18 105 -14 16 0 27 17 13 11 -8 17 -7 28 8 8 10 15 26 15 34 0
10 8 5 23 -13 l22 -28 13 30 c7 17 23 33 34 37 15 5 17 8 8 14 -8 5 -15 16
-16 25 -2 16 -1 16 16 0 20 -18 34 -7 24 19 -4 12 -2 15 9 10 18 -7 43 31 27
41 -6 4 -3 15 7 30 10 12 22 20 27 17 5 -3 6 0 2 6 -4 6 -4 23 0 38 6 22 8 24
16 10 15 -26 29 -19 18 10 -9 23 -8 25 12 18 19 -6 21 -4 12 7 -12 15 -13 63
-1 75 4 4 7 -5 7 -20 0 -24 2 -26 15 -12 18 18 19 33 3 39 -10 4 -10 6 0 6 6
1 12 8 12 16 0 13 -106 15 -890 15 l-890 0 0 -1546z m1550 1162 c0 -2 -7 -9
-15 -16 -12 -10 -15 -10 -15 4 0 9 7 16 15 16 8 0 15 -2 15 -4z m-80 -16 c0
-5 -2 -10 -4 -10 -3 0 -8 5 -11 10 -3 6 -1 10 4 10 6 0 11 -4 11 -10z m-118
-162 c-6 -6 -7 0 -4 19 5 21 7 23 10 9 2 -10 0 -22 -6 -28z m38 -39 c0 -5 -4
-9 -10 -9 -5 0 -10 7 -10 16 0 8 5 12 10 9 6 -3 10 -10 10 -16z m-160 -159 c0
-5 -4 -10 -10 -10 -5 0 -10 5 -10 10 0 6 5 10 10 10 6 0 10 -4 10 -10z m-910
-1686 c0 -8 -5 -12 -10 -9 -6 4 -8 11 -5 16 9 14 15 11 15 -7z"/>
<path d="M1980 8460 c-12 -39 -23 -76 -24 -83 -2 -7 -6 -19 -9 -27 -8 -21 -18
-69 -24 -110 -3 -19 -9 -43 -14 -52 -5 -9 -9 -26 -9 -37 0 -12 -6 -21 -12 -21
-9 0 -8 -4 2 -11 10 -7 11 -12 4 -15 -6 -3 -9 -16 -6 -29 3 -16 0 -25 -8 -25
-7 0 -10 -7 -7 -15 4 -8 1 -17 -5 -21 -7 -4 -6 -9 3 -14 10 -7 10 -11 0 -24
-7 -8 -13 -32 -13 -53 0 -21 -4 -46 -9 -55 -7 -12 -6 -18 1 -18 6 0 5 -11 -4
-29 -9 -16 -12 -31 -9 -35 8 -8 6 -74 -3 -88 -4 -7 -9 -53 -10 -102 -3 -83 -7
-125 -20 -211 -2 -16 -4 -41 -4 -54 0 -13 -5 -30 -11 -37 -6 -7 -8 -18 -4 -23
3 -6 1 -20 -5 -31 -8 -15 -8 -20 1 -20 8 0 8 -5 -2 -16 -10 -13 -10 -17 0 -24
10 -5 10 -9 1 -12 -7 -2 -13 -42 -15 -118 -4 -99 -9 -165 -15 -165 -1 0 -3
-15 -6 -33 -2 -19 -11 -62 -20 -95 -8 -34 -19 -80 -23 -102 -10 -54 -73 -249
-82 -255 -4 -3 -11 -19 -15 -35 -4 -17 -10 -32 -14 -35 -5 -4 -41 -91 -46
-110 0 -3 -7 -18 -14 -35 -8 -16 -14 -34 -15 -40 -1 -5 -16 -39 -33 -74 -18
-36 -32 -70 -32 -76 0 -7 -11 -25 -25 -41 -14 -16 -32 -43 -40 -61 -9 -18 -26
-45 -40 -61 -13 -16 -22 -32 -18 -36 3 -3 2 -6 -4 -6 -6 0 -30 -28 -54 -62
-23 -35 -46 -65 -49 -68 -3 -3 -16 -22 -29 -42 -12 -21 -26 -38 -30 -38 -4 0
-14 -11 -21 -25 -7 -14 -19 -25 -27 -25 -7 0 -13 -6 -13 -14 0 -17 -72 -81
-112 -98 -15 -7 -28 -16 -28 -20 0 -5 -9 -8 -19 -8 -11 0 -27 -8 -37 -17 -10
-11 -19 -13 -21 -7 -2 6 -20 3 -47 -10 -25 -11 -43 -23 -41 -26 2 -3 -9 -5
-26 -4 -16 1 -29 -3 -29 -8 0 -6 -12 -8 -26 -5 -15 2 -31 -2 -40 -10 -8 -8
-21 -12 -29 -9 -8 3 -15 0 -15 -5 0 -7 -11 -9 -25 -7 -17 4 -25 1 -25 -9 0
-10 -6 -12 -21 -8 -12 4 -24 3 -28 -2 -8 -13 -141 -42 -141 -32 0 5 -16 9 -35
9 -19 0 -35 -4 -35 -10 0 -5 -4 -10 -10 -10 -18 0 -11 17 13 29 20 10 20 11
-8 5 -59 -13 -76 -12 -82 2 -3 8 -10 14 -15 14 -6 0 -8 -7 -4 -15 8 -21 -11
-19 -23 3 -8 14 -12 15 -22 5 -18 -18 -29 -16 -29 3 0 10 -6 14 -15 10 -8 -3
-18 2 -23 11 -8 13 -10 13 -17 -3 -7 -17 -9 -17 -15 6 -8 24 -8 24 -9 2 -1
-20 -3 -21 -21 -10 -11 7 -20 21 -20 31 0 10 -4 15 -10 12 -6 -4 -10 -923 -10
-2666 l0 -2659 6400 0 6400 0 0 4265 0 4265 -5399 0 -5399 0 -22 -70z m4618
24 c15 -4 30 -7 35 -6 4 1 7 -3 7 -9 0 -7 12 -9 30 -7 23 4 30 1 26 -9 -4 -10
-1 -11 12 -4 13 7 17 5 18 -12 1 -12 5 -33 9 -46 6 -18 5 -22 -4 -16 -10 6
-11 3 -2 -14 8 -15 9 -21 1 -21 -6 0 -8 -5 -4 -12 4 -7 8 -40 9 -75 1 -34 6
-68 12 -75 15 -20 24 -50 13 -43 -6 3 -10 1 -10 -4 0 -6 5 -11 12 -11 6 0 3
-7 -8 -15 -19 -14 -19 -14 1 -15 18 0 18 -2 -5 -23 -19 -18 -36 -23 -73 -23
-40 1 -47 -2 -48 -19 -2 -17 -2 -17 -6 3 -2 12 -9 22 -14 22 -5 0 -9 10 -10
23 0 22 0 22 -9 1 -9 -24 -46 -38 -57 -22 -3 6 -2 8 3 5 6 -3 16 -2 24 3 12 7
12 10 -3 15 -9 4 -19 23 -23 42 -6 34 -7 35 -19 14 -11 -22 -11 -22 -24 6 -8
15 -16 23 -18 16 -2 -7 -12 -9 -20 -6 -12 5 -15 2 -10 -10 3 -9 2 -19 -3 -22
-6 -4 -10 4 -10 16 0 22 0 22 -15 3 -11 -14 -14 -15 -15 -4 0 13 -2 13 -9 0
-6 -8 -7 -18 -5 -22 3 -4 -3 -8 -13 -8 -11 0 -24 -5 -31 -12 -9 -9 -12 -7 -12
9 0 13 -8 24 -21 28 -11 4 -18 12 -16 18 2 7 1 19 -3 27 -10 19 6 63 20 55 5
-3 10 -1 10 4 0 6 -4 11 -9 11 -14 0 -2 36 20 59 10 11 19 26 19 34 0 20 31
80 49 94 9 7 22 10 29 8 6 -2 12 0 12 5 0 5 11 12 25 16 14 3 25 11 25 18 0
15 31 34 53 30 9 -1 18 3 18 9 1 7 3 5 6 -5 2 -9 16 -20 31 -24z m1087 -374
c-3 -5 -1 -10 4 -10 6 0 11 5 11 10 0 6 7 10 16 10 8 0 13 -4 10 -9 -3 -4 8
-7 25 -5 53 6 129 -68 113 -110 -3 -9 -2 -16 4 -16 6 0 8 -9 5 -20 -3 -11 -12
-20 -19 -20 -8 0 -14 -3 -14 -8 0 -4 -31 -7 -70 -7 -38 0 -70 -3 -70 -7 0 -5
-11 -8 -23 -8 -13 0 -26 -3 -30 -6 -3 -3 -37 -7 -75 -9 l-69 -3 -10 44 c-6 24
-6 41 -2 38 5 -3 9 2 9 11 0 9 4 14 9 11 4 -3 13 6 19 19 7 14 16 25 21 25 6
0 8 6 5 13 -6 18 22 41 41 34 18 -7 75 11 75 24 0 5 5 9 11 9 5 0 7 -4 4 -10z
m-1162 -15 c-3 -9 -8 -14 -10 -11 -3 3 -2 9 2 15 9 16 15 13 8 -4z m-2261
-403 c-6 -2 -12 -13 -12 -25 0 -18 2 -19 10 -7 8 13 10 12 10 -2 0 -10 8 -19
18 -19 16 -1 16 -2 0 -6 -10 -2 -18 -9 -18 -14 0 -6 -7 -17 -15 -25 -22 -22
-19 -37 4 -24 28 14 29 13 24 -17 -7 -44 -4 -75 8 -89 9 -11 8 -14 -1 -14 -7
0 -10 -7 -6 -17 4 -9 1 -20 -6 -25 -10 -6 -9 -8 3 -8 16 0 19 -26 5 -48 -4 -6
-4 -12 1 -12 13 0 12 -94 0 -102 -9 -6 -9 -8 1 -8 9 0 11 -16 10 -55 -2 -30
-7 -55 -12 -55 -4 0 -3 -7 4 -15 9 -10 9 -15 1 -15 -6 0 -10 -3 -9 -7 5 -20
-27 -93 -38 -89 -7 2 -15 2 -18 -2 -13 -13 -35 -10 -29 4 3 8 0 14 -6 14 -6 0
-11 5 -11 11 0 5 5 7 10 4 6 -3 10 -1 10 5 0 6 -7 13 -15 16 -12 5 -13 10 -4
20 6 8 8 14 3 14 -5 0 -9 14 -9 30 0 17 4 30 8 30 4 0 3 8 -2 19 -6 10 -8 21
-5 24 5 5 15 73 18 120 0 15 3 27 6 27 3 0 6 26 7 57 1 32 6 59 11 61 5 1 8
16 6 32 -2 19 1 30 9 30 8 0 7 4 -3 10 -13 9 -13 10 0 10 13 0 13 1 0 10 -8 5
-10 10 -4 10 11 0 11 35 -1 90 -4 21 -4 22 5 8 6 -10 16 -18 23 -18 8 0 9 2 1
8 -6 4 -14 24 -18 45 -7 38 -7 38 16 26 14 -8 18 -14 10 -17z m25 -4 c-3 -8
-6 -5 -6 6 -1 11 2 17 5 13 3 -3 4 -12 1 -19z m2663 -227 c0 -4 12 -8 27 -9
31 -2 34 -4 37 -29 2 -10 7 -16 12 -14 5 1 8 8 6 15 -3 8 0 8 9 -1 6 -6 17
-10 23 -9 6 2 8 1 4 -1 -5 -3 -8 -12 -7 -21 0 -11 2 -12 6 -4 7 17 23 5 23
-19 0 -11 -4 -18 -9 -15 -5 3 -14 -1 -21 -9 -7 -8 -16 -13 -20 -10 -5 3 -12 0
-16 -6 -4 -8 -9 -7 -15 2 -7 11 -9 10 -9 -3 0 -22 -48 -32 -85 -18 -35 13 -51
1 -36 -28 6 -10 7 -22 4 -26 -3 -3 -2 -6 3 -6 5 0 10 -27 9 -59 0 -33 -3 -57
-7 -55 -4 2 -9 -5 -13 -16 -3 -11 -11 -20 -17 -20 -6 0 -9 -3 -6 -6 7 -7 -29
-44 -64 -67 -48 -30 -100 -16 -106 28 -3 22 -4 26 -22 72 -6 18 -15 31 -19 28
-4 -2 -8 1 -9 8 -1 7 -6 34 -12 61 -9 42 -8 51 8 62 9 7 13 14 7 14 -5 0 8 9
30 19 27 13 45 16 57 10 32 -17 82 -17 103 -1 12 10 15 11 8 2 -7 -8 -13 -17
-13 -21 0 -10 39 1 47 14 3 6 1 7 -5 3 -16 -9 -15 7 0 22 9 9 9 12 -1 12 -8 0
-10 7 -6 21 5 14 2 25 -6 30 -11 7 -10 9 5 9 15 0 16 3 6 15 -14 17 -5 35 16
35 8 0 13 4 10 9 -4 5 10 4 29 -2 19 -6 35 -13 35 -16z m-1802 -116 c30 -4 54
-24 45 -38 -4 -6 0 -8 10 -4 9 3 16 3 16 -1 -1 -4 0 -9 1 -12 29 -75 32 -264
7 -410 -4 -19 -11 -69 -18 -110 -6 -41 -15 -84 -19 -95 -9 -19 -25 -89 -36
-150 -3 -16 -10 -48 -16 -70 -6 -22 -12 -47 -14 -55 -1 -8 -11 -40 -22 -70
-11 -30 -26 -75 -32 -100 -7 -25 -15 -52 -18 -60 -3 -8 -6 -17 -6 -20 -8 -34
-31 -107 -36 -115 -8 -11 -21 -59 -25 -90 -1 -11 -10 -45 -19 -75 -32 -108
-41 -160 -27 -160 22 0 40 13 34 24 -3 6 3 3 14 -6 12 -11 36 -18 62 -18 23 0
40 -3 37 -8 -2 -4 17 -7 44 -7 26 0 46 4 43 9 -4 5 -1 6 5 2 6 -4 21 -2 32 4
14 8 20 8 20 0 0 -6 5 -8 10 -5 6 4 8 11 4 16 -3 6 5 8 20 5 17 -3 29 1 36 12
6 11 9 12 10 4 0 -8 9 -12 23 -10 13 2 21 -2 20 -9 -2 -7 3 -10 10 -7 8 3 26
0 40 -5 32 -12 39 -60 10 -62 -11 0 -13 -3 -5 -6 6 -2 12 -19 12 -36 0 -21 7
-36 20 -45 11 -7 20 -19 20 -27 0 -8 11 -17 24 -21 14 -3 27 -12 30 -21 3 -8
10 -11 16 -8 5 3 10 -1 10 -9 0 -9 5 -16 11 -16 15 0 47 -36 55 -63 4 -12 13
-27 20 -35 14 -14 18 -30 14 -69 -1 -13 4 -23 12 -23 11 0 11 -2 0 -9 -11 -7
-11 -11 2 -24 21 -21 20 -27 -6 -28 l-23 -2 23 -4 c26 -5 30 -22 5 -24 -78 -5
-83 -4 -78 16 3 11 3 15 0 9 -8 -16 -99 -1 -119 19 -10 9 -26 17 -37 17 -10 0
-19 5 -19 10 0 6 -6 10 -12 10 -7 0 -33 16 -57 35 -24 19 -47 35 -51 35 -4 0
-23 13 -41 30 -19 16 -49 35 -66 42 -18 7 -33 15 -33 19 0 13 -86 27 -137 23
-60 -6 -123 17 -131 48 -3 12 -14 18 -32 18 -22 0 -30 -7 -45 -42 -10 -24 -26
-62 -36 -85 -11 -24 -19 -46 -19 -49 0 -7 -8 -24 -74 -168 -25 -54 -46 -100
-46 -102 0 -2 -11 -27 -24 -56 -28 -62 -56 -143 -56 -163 0 -7 -9 -34 -20 -60
-14 -33 -25 -45 -35 -41 -8 3 -17 1 -20 -5 -15 -24 -185 11 -185 38 0 8 -4 12
-8 9 -12 -7 -31 34 -28 59 1 11 29 76 63 145 33 69 66 141 73 160 19 51 48
116 80 185 38 79 120 271 120 280 0 7 25 74 101 265 17 41 34 84 39 95 6 11
21 52 35 90 14 39 28 77 32 85 11 28 74 205 76 215 2 6 9 21 17 35 7 14 12 25
10 25 -2 0 40 149 56 195 3 8 5 15 5 15 0 0 9 29 20 65 12 36 24 83 29 105 4
22 17 87 30 145 32 150 43 274 29 322 -6 22 -4 34 6 45 8 8 15 20 15 26 0 7
-4 6 -10 -3 -8 -13 -10 -12 -10 4 0 16 5 17 33 11 17 -4 42 -8 55 -10z m1181
-150 c16 -8 32 -11 36 -7 4 4 5 -3 2 -15 -3 -13 -1 -23 3 -23 4 0 3 -16 -3
-35 -6 -19 -14 -35 -19 -35 -4 0 -8 -5 -8 -11 0 -25 -46 -110 -62 -115 -57
-18 -145 -14 -133 7 4 5 -7 9 -22 9 -20 0 -40 11 -61 33 -27 28 -31 38 -26 65
5 23 14 34 30 38 13 3 24 9 24 13 0 5 18 14 40 21 21 7 37 16 35 20 -2 4 1 7
8 8 21 2 57 13 102 32 11 5 21 9 23 9 2 1 16 -6 31 -14z m911 -212 c38 -11 68
-30 98 -59 23 -23 42 -45 42 -49 0 -3 12 -31 26 -62 15 -31 28 -63 29 -72 4
-39 19 -98 30 -121 7 -14 15 -41 17 -60 1 -19 7 -38 11 -41 5 -3 1 -13 -7 -22
-9 -8 -16 -20 -16 -26 0 -12 -13 -15 -45 -11 -24 3 -50 8 -50 10 0 1 -11 4
-25 6 -14 3 -26 9 -28 14 -2 6 -8 10 -12 10 -20 0 -57 48 -74 95 -10 28 -27
70 -39 95 -11 25 -22 54 -24 64 -2 11 -10 28 -19 37 -13 14 -36 79 -34 94 0 3
-6 13 -15 22 -17 17 -17 70 0 90 12 14 61 9 135 -14z m-184 -648 c-3 -10 1
-15 11 -15 13 0 14 -3 5 -12 -7 -7 -12 -17 -12 -22 0 -6 5 -4 10 4 7 10 9 -4
5 -49 -3 -35 -8 -67 -10 -71 -4 -6 -8 -34 -20 -125 -2 -16 -5 -30 -6 -30 -1 0
-3 -13 -5 -30 -8 -76 -31 -171 -77 -320 -14 -44 -53 -170 -87 -280 -34 -110
-70 -221 -81 -247 -10 -26 -19 -53 -19 -61 0 -8 -9 -34 -19 -58 -11 -24 -21
-53 -23 -64 -5 -29 -31 -45 -88 -52 -50 -6 -135 11 -147 29 -6 11 10 72 33
127 8 18 13 36 10 39 -3 2 2 18 10 34 9 17 11 27 6 24 -6 -3 -13 3 -17 14 -3
11 -11 20 -17 20 -5 0 -8 -7 -5 -15 4 -8 2 -17 -3 -20 -6 -4 -10 -2 -10 3 0 6
-7 13 -16 16 -8 3 -12 2 -9 -4 3 -6 1 -10 -4 -10 -6 0 -11 5 -11 10 0 6 -5 10
-11 10 -5 0 -7 -4 -4 -10 3 -5 2 -10 -4 -10 -5 0 -12 4 -16 9 -3 6 -15 8 -26
6 -30 -6 -99 24 -99 44 0 13 -2 13 -9 2 -7 -11 -10 -9 -16 8 -3 11 -13 21 -21
21 -8 0 -22 13 -33 30 -10 16 -21 27 -24 23 -4 -3 -7 -1 -7 5 0 7 -7 12 -15
12 -9 0 -15 9 -15 23 0 16 -3 18 -9 8 -5 -7 -14 -10 -20 -6 -9 5 -9 11 1 23
10 14 10 15 -2 5 -18 -16 -50 1 -50 27 0 11 -7 20 -15 20 -8 0 -15 9 -15 20 0
25 17 26 23 3 3 -12 5 -8 6 9 1 27 21 51 21 25 0 -11 12 -14 50 -11 52 3 59
-2 38 -26 -7 -8 -4 -7 8 3 25 21 38 22 30 2 -3 -8 -1 -15 4 -15 6 0 10 4 10
10 0 6 10 5 28 -1 15 -6 34 -12 42 -13 28 -2 80 -31 80 -43 0 -7 11 -13 25
-13 14 0 24 -3 24 -7 -3 -20 2 -24 16 -13 12 10 15 10 15 -4 0 -9 6 -16 13
-16 8 0 22 -9 32 -20 10 -11 22 -17 26 -14 13 8 17 -68 5 -103 -5 -14 -3 -23
3 -23 10 0 15 14 12 33 -1 5 11 25 26 45 48 64 99 165 128 252 10 30 23 69 30
85 16 37 53 148 66 195 6 19 14 44 19 55 5 11 14 40 19 65 6 25 17 64 25 87 8
22 12 44 8 48 -4 3 -1 10 6 14 7 4 14 19 16 32 1 13 5 31 8 39 9 21 37 121 42
145 9 46 18 63 32 58 8 -3 14 0 14 5 0 6 12 13 28 15 15 2 29 5 31 6 2 0 1 -6
-3 -14z m-3597 -143 c-5 -2 -16 1 -23 7 -7 6 -16 8 -19 4 -13 -13 -7 -19 23
-21 16 -1 42 -7 57 -13 26 -10 26 -12 8 -18 -17 -7 -16 -8 8 -15 15 -3 25 -11
22 -15 -3 -5 2 -16 10 -24 8 -9 15 -22 15 -31 0 -8 10 -24 22 -35 30 -28 50
-86 53 -148 1 -29 4 -56 8 -59 3 -3 -1 -23 -8 -44 -7 -21 -12 -47 -10 -57 2
-10 4 -22 4 -26 1 -5 11 -5 24 -2 15 4 18 4 8 -3 -8 -6 -10 -15 -5 -23 5 -8 9
-23 11 -34 1 -11 -1 -14 -3 -7 -9 21 -22 13 -16 -10 4 -16 2 -19 -8 -13 -10 6
-12 4 -7 -9 8 -20 -21 -56 -45 -56 -10 0 -18 -7 -18 -16 0 -8 5 -12 10 -9 6 3
10 4 10 1 0 -3 -9 -10 -19 -15 -17 -9 -18 -8 -14 12 3 12 10 27 14 33 5 6 6
14 2 17 -12 13 13 7 27 -5 12 -11 12 -10 1 5 -7 9 -10 17 -5 17 19 0 -22 20
-41 20 -17 0 -17 -2 -5 -10 17 -11 10 -13 -14 -4 -17 7 -11 32 13 53 14 12 14
13 -2 7 -10 -3 -23 -6 -28 -6 -4 0 -6 -7 -3 -15 3 -8 -1 -28 -10 -46 -9 -17
-13 -37 -9 -43 3 -6 -3 -3 -14 7 -11 9 -25 17 -31 17 -6 0 -9 7 -6 15 5 11 2
13 -10 9 -12 -5 -14 -10 -6 -20 8 -9 8 -19 -1 -36 l-11 -23 22 23 c18 19 24
21 31 10 5 -7 9 -17 9 -23 0 -5 -5 -3 -10 5 -8 13 -10 12 -10 -4 0 -14 5 -17
25 -12 15 4 25 2 25 -4 0 -6 -4 -9 -9 -5 -5 3 -13 0 -16 -5 -5 -8 -14 -5 -27
7 -20 18 -21 18 -13 -7 4 -14 13 -28 19 -32 8 -5 8 -10 -1 -19 -8 -8 -13 -3
-18 19 -7 32 -42 50 -60 30 -7 -8 -6 -9 3 -4 20 12 42 -13 42 -46 0 -25 3 -29
20 -25 11 3 20 1 20 -4 0 -5 -6 -9 -13 -9 -7 0 -18 -9 -25 -21 -8 -12 -19 -18
-28 -15 -10 4 -14 1 -11 -6 2 -7 15 -12 28 -11 23 3 24 2 4 -12 -11 -8 -28
-22 -37 -31 -21 -21 -36 -11 -18 11 17 21 5 45 -22 42 -18 -1 -22 3 -20 18 13
103 10 119 -16 93 -9 -9 -12 -9 -12 0 0 7 5 12 10 12 6 0 10 7 10 15 0 8 5 15
10 15 17 0 11 42 -7 57 -10 7 -13 12 -7 11 7 -2 21 8 33 21 21 24 29 47 13 37
-19 -11 2 56 25 80 15 16 18 24 9 21 -13 -5 -16 1 -16 33 0 22 4 40 10 40 5 0
15 18 21 40 9 31 9 43 -1 55 -10 12 -10 15 5 15 14 0 17 7 13 43 -3 23 -3 34
-1 25 3 -10 8 -18 13 -18 15 0 -11 74 -32 93 -17 14 -18 20 -7 33 7 8 8 14 3
13 -23 -4 -29 4 -30 41 0 29 3 36 9 25 5 -9 6 -23 3 -32 -5 -13 -4 -14 9 -3 9
8 12 17 7 24 -13 16 -23 48 -14 42 4 -2 14 -1 21 3 7 5 23 3 37 -3 13 -6 19
-13 13 -14z m-658 -48 c7 -9 12 -31 12 -50 -1 -19 3 -36 7 -39 4 -3 6 -23 3
-45 -3 -23 -1 -40 4 -40 5 0 15 -12 21 -26 7 -14 8 -23 2 -19 -5 3 -10 2 -10
-4 0 -5 5 -13 10 -16 6 -4 8 -11 5 -16 -4 -5 -1 -9 4 -9 6 0 11 -11 11 -24 0
-14 5 -28 10 -31 6 -4 8 -10 5 -15 -3 -5 9 -14 27 -19 25 -7 28 -9 11 -10 -13
-1 -23 -5 -23 -10 0 -6 9 -8 20 -6 11 2 20 0 20 -6 0 -5 -8 -9 -17 -9 -12 0
-14 -3 -7 -8 14 -8 16 -110 3 -118 -5 -3 -9 -13 -9 -24 0 -19 -21 -32 -42 -26
-7 1 -10 1 -5 -1 9 -6 9 -23 -1 -23 -4 0 -28 18 -52 41 -25 22 -37 37 -27 33
10 -4 17 -1 17 6 0 6 -9 14 -20 17 -11 3 -20 14 -20 24 0 11 -7 22 -15 25 -8
4 -15 11 -15 16 0 15 -36 58 -43 51 -4 -3 -9 13 -13 36 -4 24 -12 41 -20 41
-8 0 -11 6 -7 17 5 12 2 15 -10 10 -9 -3 -17 -2 -17 3 0 6 5 10 12 10 9 0 9 3
1 11 -6 6 -9 18 -6 27 4 9 2 13 -4 9 -6 -4 -13 2 -16 12 -4 15 -1 18 12 13 14
-5 14 -3 3 10 -29 36 69 179 129 191 13 2 27 5 30 6 4 0 12 -6 20 -15z m607
-109 c-3 -3 -9 2 -12 12 -6 14 -5 15 5 6 7 -7 10 -15 7 -18z m-1428 -245 c0
-5 -2 -10 -4 -10 -3 0 -8 5 -11 10 -3 6 -1 10 4 10 6 0 11 -4 11 -10z m5734
-12 c-4 -7 -14 -21 -23 -31 -8 -10 -17 -37 -18 -59 -4 -52 -200 -454 -290
-592 -13 -21 -19 -35 -12 -31 18 12 6 -63 -25 -155 -29 -84 -33 -109 -11 -68
14 24 19 26 63 21 l49 -4 33 103 c18 57 64 184 102 283 59 152 78 218 90 313
1 7 7 11 14 8 7 -3 15 6 18 20 9 35 32 25 28 -12 -2 -16 -28 -103 -59 -194
-31 -91 -57 -174 -58 -185 -2 -11 -4 -20 -5 -20 -1 0 -3 -18 -5 -41 -2 -22
-17 -91 -34 -153 -17 -62 -29 -116 -26 -122 4 -5 27 -9 53 -9 68 0 336 -41
343 -52 9 -14 18 42 12 74 -9 46 27 225 68 342 22 61 42 129 44 152 7 74 57
206 107 279 64 94 108 143 115 128 2 -7 11 -13 19 -13 21 0 17 -16 -8 -27 -71
-33 -146 -136 -178 -241 -4 -15 -11 -36 -15 -47 -14 -44 24 33 50 100 27 68
65 125 65 96 0 -8 -43 -111 -96 -230 -91 -206 -140 -354 -132 -404 2 -12 12
21 22 73 10 52 27 111 37 130 15 28 18 30 14 10 -2 -14 -13 -74 -24 -135 -12
-60 -39 -175 -61 -255 -42 -152 -46 -174 -29 -150 11 15 6 -250 -6 -316 -3
-17 3 -61 13 -98 l18 -67 30 72 c36 88 61 106 38 27 -9 -29 -25 -71 -35 -92
-22 -46 -23 -61 -8 -104 8 -23 16 -31 31 -29 12 1 23 -4 25 -10 3 -9 -7 -13
-31 -13 -42 0 -46 8 -74 125 -15 61 -17 66 -20 36 -3 -26 -6 -31 -13 -20 -8
12 -10 12 -19 -1 -13 -20 -12 -8 5 83 15 81 20 166 6 102 -13 -55 -22 133 -10
208 6 37 9 70 7 71 -4 4 -325 18 -382 17 -22 -1 -45 4 -52 10 -14 12 -31 -10
-89 -116 -21 -38 -44 -78 -52 -87 -12 -13 -13 -24 -5 -50 6 -18 22 -72 37
-119 27 -93 37 -102 101 -101 41 2 74 -33 76 -80 1 -33 3 -35 50 -45 41 -8 50
-7 57 6 7 12 13 7 25 -23 9 -21 16 -44 16 -51 0 -22 -69 -85 -94 -85 -3 0 -6
7 -6 16 0 8 -5 12 -10 9 -6 -3 -17 1 -26 9 -8 9 -13 16 -9 16 4 0 0 7 -9 15
-13 14 -20 11 -60 -30 -51 -51 -56 -46 59 -64 122 -18 422 -72 488 -87 80 -18
126 -13 154 19 23 25 43 79 42 111 0 12 -7 -3 -15 -33 -18 -66 -19 -68 -56
-87 -41 -21 -45 -12 -8 24 16 17 30 36 30 44 -1 7 -7 1 -15 -13 -14 -26 -43
-45 -53 -34 -3 3 3 15 14 27 10 13 0 6 -24 -15 -23 -20 -46 -37 -50 -37 -13 0
-32 23 -32 38 0 12 3 12 15 2 20 -17 63 11 77 51 11 31 28 39 28 13 0 -8 5
-12 10 -9 6 3 10 15 10 26 0 31 -67 15 -102 -25 -23 -26 -29 -29 -38 -16 -8
13 -10 12 -10 -4 0 -11 -3 -16 -7 -12 -6 6 -5 107 1 114 2 1 18 -5 36 -14 30
-15 33 -15 42 -1 5 10 15 14 25 10 14 -5 15 -1 10 30 -7 43 10 54 51 33 15 -7
32 -12 38 -9 19 7 41 -31 53 -91 8 -42 8 -62 1 -66 -6 -4 -19 -22 -28 -40 -9
-19 -29 -42 -43 -53 -26 -19 -30 -19 -170 -2 -79 9 -166 21 -194 26 -27 6 -70
12 -95 15 -25 3 -101 14 -170 24 -387 58 -673 101 -728 111 -36 7 -67 8 -72 3
-9 -9 -50 -126 -50 -142 0 -10 116 -22 630 -62 206 -16 456 -36 555 -44 99 -8
231 -18 293 -22 109 -6 114 -6 138 16 24 23 35 15 12 -8 -6 -6 -10 -14 -7 -16
2 -2 96 -11 209 -21 113 -9 243 -20 290 -24 91 -8 117 -4 140 25 14 18 14 18
-12 1 -37 -23 -45 -21 -21 6 34 37 39 54 6 20 -42 -44 -50 -42 -17 5 22 30 22
32 3 11 -30 -33 -66 -52 -85 -45 -22 8 -16 25 7 19 47 -13 112 93 90 147 -8
22 -10 19 -10 -24 -1 -36 -4 -47 -12 -39 -6 6 -12 71 -15 149 -3 77 -7 164 -9
194 -2 30 -4 91 -6 135 -2 71 -3 75 -9 35 -4 -25 -8 -38 -10 -30 -1 8 -6 2
-11 -15 -8 -29 -8 -29 -4 5 2 19 6 51 9 70 4 24 3 27 -2 11 -10 -32 -38 -49
-53 -34 -10 10 -9 16 3 30 21 24 58 99 58 118 0 8 4 15 9 15 14 0 23 33 11 40
-26 16 38 329 95 465 18 44 18 48 5 40 -14 -9 -5 28 30 125 32 88 100 221 100
195 0 -10 -32 -111 -71 -224 -92 -266 -118 -352 -123 -415 l-5 -51 10 48 c6
26 15 47 20 47 5 0 7 -10 4 -22 -17 -79 -25 -154 -20 -179 8 -34 -13 -132 -26
-124 -4 3 -6 -16 -4 -42 3 -26 10 -142 16 -258 12 -237 13 -240 83 -231 26 3
35 1 26 -4 -12 -7 -12 -12 -2 -22 6 -6 12 -27 12 -46 0 -41 24 -69 44 -53 13
11 43 10 85 -4 15 -4 20 0 23 16 2 12 9 25 17 27 11 4 13 -4 9 -39 -6 -44 -6
-44 8 -14 l13 30 1 -34 c0 -38 -50 -138 -61 -120 -4 8 -10 6 -16 -6 -15 -26
-25 -2 -13 32 l10 28 -20 -24 c-22 -26 -26 -21 -9 12 9 17 9 19 -1 11 -17 -17
-71 11 -63 33 5 13 2 15 -15 11 -16 -5 -22 -2 -22 10 0 10 -8 2 -17 -17 -30
-61 -63 -73 -178 -66 -107 6 -488 32 -595 40 -36 3 -164 11 -285 20 -121 8
-254 17 -295 20 -215 15 -535 36 -690 45 -96 5 -199 13 -228 16 -61 6 -53 19
-121 -182 -45 -130 -46 -134 -31 -134 5 0 49 -22 97 -48 297 -165 285 -160
314 -109 8 14 13 16 25 7 12 -11 11 -16 -3 -41 -9 -16 -15 -30 -12 -32 4 -3
473 -253 843 -449 85 -46 155 -77 163 -73 13 4 14 3 3 -10 -10 -12 -10 -15 2
-15 8 0 74 -32 147 -71 l133 -71 25 24 c14 12 50 49 81 81 57 59 99 82 46 25
-43 -47 -110 -139 -118 -163 -6 -20 -6 -20 9 -1 8 11 15 24 15 30 0 5 6 4 13
-3 10 -10 6 -17 -18 -37 -16 -13 -45 -39 -62 -57 l-33 -32 38 -16 c34 -15 38
-15 50 -1 11 15 14 15 29 -1 13 -13 14 -21 5 -39 -8 -18 -11 -19 -11 -5 -1 26
-24 20 -46 -13 -11 -16 -26 -30 -34 -30 -10 0 -8 7 8 24 13 14 20 29 17 35 -5
7 -16 0 -31 -17 l-24 -27 -1 38 c0 44 -8 46 -41 11 -13 -14 -32 -30 -41 -35
-31 -17 -10 16 33 50 40 33 125 138 117 146 -2 2 -21 -18 -41 -45 -20 -27 -61
-68 -90 -91 -28 -22 -62 -59 -74 -82 -27 -48 -104 -128 -117 -120 -5 4 -6 1
-3 -5 7 -10 -46 -62 -64 -62 -5 0 -46 -37 -91 -81 -103 -102 -229 -211 -237
-203 -3 3 15 22 39 42 76 61 310 295 304 304 -3 4 5 12 18 17 28 11 128 99
125 110 -1 5 27 37 63 71 101 97 29 44 -184 -135 -171 -143 -185 -156 -161
-148 16 5 15 2 -5 -14 -14 -11 -38 -23 -55 -27 l-30 -7 40 37 c83 76 393 332
458 378 37 26 67 51 67 54 0 4 -66 42 -146 84 l-146 77 -38 -31 c-36 -28 -45
-61 -17 -55 23 4 19 -58 -5 -84 -13 -14 -39 -49 -58 -77 -41 -62 -125 -112
-157 -93 -15 9 -12 10 18 11 29 0 47 9 88 46 28 26 57 56 63 68 l11 21 -22
-20 -22 -19 6 26 c5 21 2 29 -16 39 -22 11 -29 6 -121 -91 -54 -57 -98 -100
-98 -97 0 4 25 36 55 71 l55 65 -40 -5 c-24 -3 -40 -1 -40 6 0 5 13 10 29 10
16 0 34 7 41 15 9 10 16 12 20 5 4 -6 18 3 36 22 16 17 23 28 17 24 -9 -5 -13
0 -13 12 0 15 -5 18 -25 14 -18 -3 -25 0 -25 11 0 18 -56 21 -80 4 -12 -9 -13
-9 -2 3 18 21 15 27 -19 44 -35 17 -53 10 -64 -25 -4 -10 -15 -19 -26 -19 -10
0 -19 -4 -19 -10 0 -5 -4 -10 -10 -10 -5 0 -10 9 -10 20 0 12 5 17 13 14 7 -2
22 5 33 17 19 22 19 22 -3 8 -26 -16 -29 -14 -38 30 -7 32 -6 34 16 27 68 -18
69 -18 69 -2 0 20 14 21 30 1 7 -9 21 -13 31 -10 12 4 21 1 25 -8 5 -14 55
-31 80 -28 6 1 17 -6 24 -14 10 -11 16 -12 26 -4 9 8 22 8 42 1 25 -8 34 -5
75 25 52 39 57 49 26 58 -12 4 -47 22 -77 41 -42 25 -60 31 -73 23 -26 -13
-37 -11 -17 4 19 15 41 1 -317 187 -99 51 -246 128 -327 171 -80 44 -150 79
-155 79 -10 -1 -123 -156 -123 -170 0 -14 -31 -63 -46 -73 -16 -9 -202 -265
-249 -341 -42 -68 -196 -274 -227 -304 -18 -17 -39 -38 -47 -47 -7 -9 -15 -14
-18 -11 -6 6 69 121 137 211 78 103 532 756 529 759 -6 5 -175 94 -281 148
-54 27 -102 47 -107 44 -5 -3 -19 -32 -31 -63 -12 -32 -37 -95 -56 -140 -19
-45 -34 -85 -34 -88 0 -4 -6 -21 -14 -38 -12 -28 -20 -50 -57 -145 -5 -12 -16
-25 -25 -29 -20 -7 -116 21 -164 49 -19 11 -75 29 -124 39 -86 17 -106 28
-106 58 0 14 40 12 128 -5 29 -6 32 -4 32 19 0 14 5 29 10 32 6 3 10 16 10 29
0 22 52 184 66 207 4 7 8 24 9 38 2 14 18 69 37 121 19 52 50 137 69 189 19
52 40 101 48 108 8 8 15 29 17 46 3 35 57 171 77 195 10 13 8 14 -13 9 -33 -8
-82 5 -88 23 -4 10 4 12 34 7 22 -3 46 -8 55 -11 12 -5 20 4 34 41 10 26 29
72 43 102 28 61 23 70 -38 65 -24 -2 -42 2 -50 10 -19 24 5 27 63 7 l56 -18
10 27 c9 26 6 30 -37 58 -41 26 -58 31 -126 34 l-79 3 -15 -45 c-8 -25 -18
-47 -21 -50 -3 -3 -7 -9 -8 -15 -5 -22 -35 -101 -55 -144 -12 -25 -54 -143
-95 -261 -129 -375 -155 -462 -282 -940 -15 -58 -35 -122 -44 -143 l-17 -38
-47 7 c-27 3 -52 10 -58 14 -14 11 -11 87 5 144 10 37 10 50 1 59 -10 9 -11 8
-5 -7 6 -15 4 -18 -9 -13 -9 3 -19 2 -23 -4 -3 -6 -12 -8 -20 -5 -10 4 -14 -3
-14 -23 0 -16 7 -31 15 -35 8 -3 15 -10 15 -15 0 -6 -7 -8 -16 -4 -12 4 -14 0
-9 -20 4 -14 2 -28 -4 -32 -8 -4 -6 -11 4 -21 26 -26 12 -70 -18 -58 -9 3 -14
11 -10 17 4 6 0 8 -10 4 -9 -3 -18 -1 -21 6 -3 9 -7 8 -14 -2 -6 -8 -19 -12
-32 -8 -17 4 -19 3 -9 -9 15 -18 -2 -18 -27 1 -10 8 -26 14 -34 15 -13 0 -13
-1 0 -11 12 -8 11 -9 -5 -7 -13 3 -19 10 -17 23 3 20 2 20 -13 1 -8 -11 -15
-14 -15 -8 0 7 -5 12 -11 12 -5 0 -8 -4 -5 -9 3 -4 -6 -6 -19 -3 -14 2 -28 8
-31 13 -3 5 -22 9 -43 9 -20 0 -42 5 -49 12 -7 7 -12 9 -12 4 0 -4 -10 0 -21
8 -12 8 -28 12 -35 9 -8 -3 -14 -1 -14 5 0 6 -13 13 -29 17 -17 3 -31 14 -33
23 -4 19 -72 25 -130 12 -27 -5 -38 -4 -39 4 0 7 -2 7 -6 -2 -2 -6 -8 -10 -12
-7 -19 11 -111 13 -112 2 0 -9 -2 -8 -6 1 -2 6 -12 12 -20 12 -9 0 -30 9 -47
20 l-32 19 -1 -22 c-1 -12 14 -55 33 -96 23 -48 32 -77 25 -84 -5 -5 -7 -16
-4 -25 5 -11 3 -13 -7 -7 -10 6 -12 1 -7 -26 7 -34 6 -34 -8 -9 -15 25 -15 25
-21 3 -4 -13 -11 -20 -20 -16 -10 4 -12 0 -7 -13 6 -16 4 -17 -9 -7 -8 7 -17
11 -20 8 -6 -6 -88 71 -88 83 0 6 -9 12 -21 15 -12 3 -18 10 -14 16 4 7 -3 11
-17 11 -19 0 -20 2 -8 11 12 9 11 10 -7 6 -18 -4 -23 -1 -23 14 0 10 -9 23
-20 29 -11 6 -17 16 -14 22 5 7 2 9 -9 5 -11 -4 -18 1 -23 16 -4 12 -2 23 5
25 6 2 11 8 11 13 0 6 -8 6 -19 -1 -13 -7 -22 -7 -26 0 -3 5 2 11 12 11 15 1
15 2 2 6 -16 4 -28 38 -32 91 -2 24 -12 29 -21 10 -3 -7 -3 -3 -1 8 4 14 0 24
-10 28 -8 3 -15 16 -15 30 0 14 -5 28 -11 31 -5 4 -14 18 -19 31 -5 13 -16 24
-24 24 -7 0 -17 7 -20 15 -3 9 -19 21 -36 26 -16 6 -27 15 -24 20 3 6 0 17 -8
26 -14 18 -21 170 -7 179 4 2 5 20 2 40 -4 25 -2 39 8 45 12 8 12 11 -1 19
-13 8 -12 10 2 10 10 0 17 3 16 8 0 4 1 14 4 22 3 8 11 44 17 79 7 35 18 73
26 85 7 11 16 32 20 46 4 14 18 39 31 57 13 17 24 36 24 41 0 6 3 12 8 14 4 2
19 21 34 43 37 53 108 129 137 144 12 7 53 14 89 15 56 3 70 0 84 -16 16 -18
18 -19 50 -2 18 9 35 20 38 24 32 45 98 110 112 110 12 0 15 5 11 17 -4 11 -3
14 5 9 7 -4 12 -1 12 8 0 14 21 38 65 74 8 7 38 14 65 15 28 0 50 4 50 8 0 4
9 5 20 2 11 -3 18 -9 15 -13 -3 -5 4 -6 14 -3 21 5 95 -39 84 -50 -3 -4 1 -7
10 -7 10 0 17 -8 17 -17 0 -15 2 -16 10 -3 8 12 11 11 16 -8 6 -21 8 -22 24
-7 15 14 22 14 42 3 12 -7 25 -15 28 -18 3 -3 37 -6 75 -8 39 -1 71 -7 73 -12
2 -5 10 -6 18 -3 8 3 25 -2 39 -11 14 -9 25 -12 25 -7 0 6 11 -1 25 -14 13
-14 29 -25 34 -25 16 0 33 -39 33 -74 0 -31 -30 -95 -57 -122 -7 -8 -23 -14
-34 -14 -12 0 -21 -6 -22 -12 0 -10 -2 -10 -6 0 -4 10 -8 10 -19 1 -10 -8 -14
-8 -14 0 0 6 -7 11 -16 11 -8 0 -13 4 -10 9 3 4 -6 6 -21 3 -19 -4 -24 -2 -18
7 5 9 1 12 -11 11 -32 -4 -80 1 -66 7 13 5 17 24 5 22 -18 -3 -36 1 -30 7 3 4
-1 13 -9 21 -8 9 -13 22 -10 29 3 8 1 14 -5 14 -16 0 -41 29 -34 40 3 5 3 15
0 21 -11 17 -37 -29 -38 -67 -1 -19 -4 -34 -8 -34 -6 0 -20 -51 -23 -82 -1 -5
-5 -8 -10 -7 -5 0 -14 -10 -20 -23 -7 -14 -19 -22 -30 -20 -10 2 -15 -1 -12
-7 8 -12 -23 -29 -46 -26 -11 2 -18 -3 -18 -12 0 -13 -2 -13 -17 -2 -12 10
-15 11 -9 1 4 -7 -1 -28 -13 -48 -12 -19 -21 -44 -21 -54 0 -10 -6 -25 -14
-32 -7 -8 -17 -24 -20 -36 -4 -12 -11 -20 -16 -17 -4 3 -13 -9 -19 -25 -5 -17
-15 -30 -21 -30 -12 0 -41 -61 -34 -72 3 -4 -2 -5 -10 -2 -10 4 -16 1 -16 -9
0 -8 -7 -20 -14 -27 -8 -6 -25 -32 -36 -56 -12 -24 -28 -44 -36 -44 -8 0 -14
-6 -14 -13 0 -7 -9 -13 -21 -14 -16 -2 -20 3 -16 17 3 11 -3 26 -14 36 -10 9
-19 25 -19 36 0 10 -7 18 -15 18 -8 0 -15 5 -15 10 0 6 -7 10 -15 10 -8 0 -15
5 -15 10 0 6 -6 10 -12 10 -16 1 -53 50 -38 50 5 0 1 9 -11 21 -11 11 -18 27
-15 35 4 10 2 12 -6 8 -8 -5 -9 0 -5 17 4 13 7 31 7 39 0 13 1 13 10 0 8 -13
10 -12 10 3 0 9 5 17 10 17 6 0 10 5 10 11 0 5 -4 7 -10 4 -5 -3 -10 3 -10 14
0 11 5 23 10 26 6 3 10 1 10 -6 0 -7 2 -10 5 -7 12 11 -8 38 -29 38 -16 -1
-29 -18 -58 -78 -52 -106 -63 -169 -49 -262 10 -69 38 -168 51 -180 9 -9 108
-214 115 -236 5 -20 45 -42 45 -26 0 12 45 58 63 65 10 4 17 17 17 32 0 15 5
24 13 22 6 -1 10 5 8 13 -8 31 0 93 14 102 6 5 4 8 -5 8 -13 0 -13 1 0 11 11
8 12 12 3 16 -18 7 -16 23 3 23 8 0 12 5 9 10 -3 6 -1 10 5 10 6 0 8 11 6 25
-3 15 0 25 7 25 9 0 8 3 -1 8 -9 6 -6 12 12 20 14 6 28 23 32 39 4 15 13 34
21 41 7 8 11 18 8 23 -4 5 3 9 14 9 12 0 21 6 21 14 0 8 7 16 15 20 8 3 15 13
15 23 0 15 2 16 10 3 8 -12 10 -12 10 5 0 15 3 17 9 7 6 -10 10 -8 15 10 7 21
8 21 15 5 6 -17 8 -17 20 -3 17 20 41 21 41 1 0 -12 4 -13 19 -5 31 16 43 13
32 -8 -8 -16 -5 -18 26 -20 23 -2 32 1 28 8 -4 6 -13 9 -19 7 -8 -3 -12 3 -10
16 1 12 3 25 3 30 1 4 6 7 12 7 8 0 8 -5 -1 -15 -7 -8 -10 -15 -7 -15 3 0 13
-3 23 -7 11 -4 15 -3 11 4 -5 7 0 9 13 6 16 -4 19 -2 14 11 -6 15 -3 15 27 -2
19 -10 34 -26 34 -35 0 -8 3 -18 6 -21 3 -3 3 -21 1 -38 -5 -32 -6 -32 -13 -8
l-7 25 -1 -26 c-1 -14 4 -30 10 -36 6 -6 11 -27 12 -46 0 -20 5 -33 10 -30 6
4 7 -9 3 -32 -5 -25 -4 -35 3 -30 21 12 13 -97 -9 -130 -28 -42 -26 -65 5 -65
27 0 75 19 75 31 0 11 68 32 80 24 5 -3 10 1 10 10 0 14 2 14 19 -2 10 -10 21
-25 24 -33 4 -12 6 -11 6 3 1 9 5 17 11 17 5 0 9 -6 7 -12 -1 -8 6 -12 18 -10
17 2 16 0 -5 -13 l-25 -16 26 5 c17 4 31 0 39 -9 7 -8 16 -13 20 -10 7 5 25
-42 22 -57 -1 -4 5 -5 13 -2 11 5 15 -2 15 -25 0 -25 4 -31 22 -31 12 0 18 3
15 7 -4 3 -2 12 4 20 6 7 9 13 5 13 -3 0 1 17 9 38 18 46 56 220 100 462 39
212 104 478 171 695 61 199 62 202 33 214 -13 5 -32 18 -42 28 -9 11 -31 20
-48 21 -17 0 -37 6 -44 12 -8 7 -18 9 -23 6 -9 -5 -26 29 -23 47 1 4 -4 7 -10
7 -17 0 -41 29 -34 41 4 6 0 9 -11 7 -13 -2 -18 2 -16 14 2 13 -2 16 -14 11
-10 -4 -15 -2 -11 3 3 5 -15 18 -39 28 -24 10 -41 22 -38 27 3 5 -3 12 -13 16
-20 8 -68 53 -57 53 5 0 0 6 -9 13 -9 6 -20 31 -26 55 -16 76 6 147 57 179 15
10 29 20 32 24 3 3 22 12 43 18 20 7 37 15 37 17 0 3 -10 2 -21 -1 -15 -5 -19
-4 -15 4 12 20 -4 51 -27 52 -21 0 -21 1 -2 8 11 5 30 7 42 6 14 -1 20 2 16
11 -7 20 3 17 32 -8 30 -26 32 -42 5 -33 -11 3 -20 4 -20 1 0 -3 9 -15 20 -26
11 -11 20 -32 20 -46 0 -14 4 -23 9 -20 5 3 12 -6 15 -19 4 -14 11 -23 16 -20
6 3 10 1 10 -5 0 -6 4 -9 8 -6 8 5 118 -85 134 -109 15 -23 39 -49 32 -35 -7
13 -5 13 8 2 20 -16 86 -22 92 -8 4 11 10 -30 7 -48 -1 -5 -5 -43 -8 -85 l-5
-76 21 20 c18 16 26 17 41 7 17 -10 20 -6 35 45 9 32 29 68 45 84 34 35 56 39
40 8 -7 -11 -9 -23 -6 -27 3 -3 6 -1 6 5 0 5 12 15 27 22 21 10 28 9 34 -1 24
-38 -6 -88 -53 -88 -85 0 -92 -131 -11 -222 8 -9 33 -18 56 -21 23 -3 54 -8
69 -12 42 -11 75 2 123 46 96 89 116 170 62 256 -37 59 -89 88 -162 90 -33 1
-64 3 -70 3 -5 0 -1 6 10 12 21 13 96 18 89 7 -2 -4 3 -9 11 -13 8 -3 15 -1
15 4 0 15 22 12 65 -10 37 -19 47 -20 130 -10 176 21 549 34 576 19 16 -8 19
-6 19 10 0 43 69 204 138 325 26 45 45 91 44 104 -5 60 151 398 215 464 27 28
71 40 57 16z m-5840 -10 c5 -10 7 -10 12 0 3 6 10 12 16 12 6 0 8 -6 5 -12 -3
-9 7 -14 29 -15 19 -1 34 2 34 6 0 5 11 6 25 3 14 -2 25 -11 25 -18 0 -8 5
-14 10 -14 6 0 10 7 10 15 0 8 5 15 11 15 6 0 9 -9 6 -20 -7 -28 9 -25 18 3 6
20 8 18 20 -18 10 -33 14 -37 20 -21 5 11 3 21 -6 26 -7 5 -10 12 -6 16 4 4
14 -1 22 -12 14 -19 14 -19 15 1 0 17 2 17 10 5 12 -19 28 -20 63 -2 16 7 31
11 34 8 3 -3 -2 -9 -11 -12 -14 -5 -15 -9 -4 -15 7 -5 20 -9 28 -9 13 0 13 1
0 10 -13 8 -12 10 3 10 10 0 21 -8 24 -17 4 -10 11 -21 17 -25 7 -5 7 -8 -1
-8 -7 0 -13 -5 -13 -11 0 -6 7 -9 14 -6 10 4 13 1 9 -9 -3 -9 0 -14 7 -12 21
5 42 -43 27 -61 -10 -12 -9 -14 6 -8 11 4 16 3 12 -3 -3 -6 -1 -10 6 -10 7 0
9 -3 6 -6 -3 -4 -2 -15 4 -25 5 -11 6 -19 1 -19 -5 0 -9 -12 -9 -26 0 -15 -7
-31 -14 -36 -10 -7 -7 -7 9 -3 13 4 22 2 22 -4 0 -6 -5 -11 -11 -11 -6 0 -9
-7 -5 -15 3 -8 0 -15 -7 -16 -7 -1 -1 -5 13 -9 20 -6 21 -8 6 -9 -19 -1 -19
-1 0 -20 10 -10 26 -16 34 -13 9 3 7 -2 -5 -14 -12 -10 -16 -16 -10 -12 7 4
21 -1 32 -12 12 -10 24 -16 27 -13 3 4 6 -6 6 -20 0 -18 4 -25 14 -21 8 3 17
1 21 -5 3 -7 0 -8 -9 -5 -9 3 -16 2 -16 -4 0 -5 7 -13 16 -16 8 -3 12 -10 9
-16 -4 -6 -11 -8 -16 -5 -15 10 -10 -7 7 -19 12 -9 13 -17 5 -39 -6 -15 -12
-41 -13 -57 -1 -16 -6 -26 -11 -23 -5 3 -7 14 -4 24 3 11 1 17 -4 13 -5 -3 -9
-13 -10 -22 0 -14 -2 -13 -9 3 -8 19 -9 19 -9 -3 -1 -13 -5 -20 -11 -17 -5 3
-10 -2 -10 -12 -1 -10 -12 5 -25 32 -24 51 -33 57 -15 11 8 -21 6 -27 -12 -37
-18 -10 -20 -9 -15 5 3 8 1 18 -5 22 -7 5 -8 2 -3 -6 6 -10 4 -12 -8 -7 -10 3
-17 2 -17 -2 0 -5 -9 -7 -20 -4 -11 3 -20 14 -20 24 0 11 -4 19 -10 19 -5 0
-10 10 -11 23 0 12 -3 16 -6 10 -2 -7 -9 -13 -14 -13 -6 0 -7 5 -4 10 3 6 1
10 -4 10 -6 0 -11 6 -11 14 0 8 -13 23 -30 33 -16 9 -30 21 -30 26 0 5 -12 6
-27 3 -26 -6 -25 -4 7 15 34 19 31 20 -16 5 -17 -5 -22 -3 -20 11 1 14 -5 17
-29 14 -35 -4 -47 -18 -34 -42 6 -12 5 -19 -4 -23 -9 -5 -9 -7 1 -12 17 -8 15
-27 -3 -20 -22 8 -45 -3 -46 -23 0 -11 -3 -9 -9 7 -5 12 -16 25 -25 28 -8 4
-15 13 -15 21 0 8 -4 11 -10 8 -5 -3 -10 0 -10 7 0 11 -2 10 -9 0 -6 -10 -10
-9 -14 7 -4 15 -10 19 -24 15 -14 -4 -15 -4 -4 4 16 12 5 35 -14 28 -8 -3 -16
0 -19 7 -2 7 -5 4 -5 -5 -1 -10 -6 -18 -12 -18 -6 0 -8 7 -5 16 5 14 4 15 -9
4 -12 -10 -15 -9 -15 6 0 15 -2 16 -9 5 -14 -22 -32 -4 -21 23 6 17 5 23 -6
23 -8 0 -15 -7 -15 -16 -1 -9 -5 -2 -9 14 -4 17 -8 22 -9 13 0 -10 -5 -18 -9
-18 -5 0 -7 14 -4 30 3 20 0 30 -8 30 -9 0 -9 4 1 17 12 14 12 16 -1 11 -10
-4 -20 3 -27 18 -6 13 -7 22 -2 18 5 -3 9 1 10 8 0 7 5 4 10 -7 7 -16 8 -14 3
10 -3 17 -10 35 -15 40 -7 7 -8 3 -3 -10 7 -18 6 -18 -9 -6 -12 9 -14 17 -7
26 5 6 6 15 2 19 -4 4 2 15 13 23 19 15 14 14 -29 -3 -13 -5 -17 -4 -13 3 4 6
2 13 -3 15 -6 2 -1 13 10 26 12 12 18 27 15 33 -4 6 -1 9 6 8 8 -1 22 1 33 6
17 7 17 9 -5 21 l-24 13 23 1 c24 0 30 15 10 24 -7 3 -1 3 15 0 19 -4 27 -2
27 7 0 12 2 12 9 0 11 -17 34 -4 27 15 -4 11 1 13 19 8 21 -5 24 -3 19 10 -5
12 -2 15 10 10 10 -4 18 0 22 10 7 19 20 21 28 4z m81 2 c3 -5 1 -10 -4 -10
-6 0 -11 5 -11 10 0 6 2 10 4 10 3 0 8 -4 11 -10z m238 -7 c-3 -7 -1 -13 5
-13 6 0 13 6 15 13 4 9 6 9 6 0 1 -7 -9 -17 -20 -24 -17 -9 -20 -8 -14 2 6 8
4 11 -6 7 -9 -4 -15 0 -15 11 0 9 8 17 17 17 10 0 15 -6 12 -13z m5192 -240
c-11 -117 -25 -142 -18 -33 3 52 7 98 10 103 12 20 14 0 8 -70z m-3721 51 c3
-8 2 -12 -4 -9 -6 3 -10 10 -10 16 0 14 7 11 14 -7z m4717 -66 c1 -41 -3 -84
-9 -94 -9 -15 -11 -3 -12 56 0 69 8 126 16 117 2 -2 4 -37 5 -79z m904 52 c-3
-5 -12 -10 -20 -10 -17 0 -76 -68 -101 -117 -25 -49 -54 -89 -54 -74 0 17 49
111 78 149 25 33 66 61 90 62 7 0 10 -4 7 -10z m-7647 -45 c-3 -3 -9 2 -12 12
-6 14 -5 15 5 6 7 -7 10 -15 7 -18z m4399 -40 c-15 -16 -22 -11 -13 10 3 9 10
13 16 10 6 -4 5 -11 -3 -20z m-2550 -37 c-3 -8 -6 -5 -6 6 -1 11 2 17 5 13 3
-3 4 -12 1 -19z m5810 -25 c-3 -10 -5 -4 -5 12 0 17 2 24 5 18 2 -7 2 -21 0
-30z m5 -111 c-2 -37 -10 -80 -17 -97 -12 -28 -13 -26 -8 30 7 100 14 147 21
140 4 -4 5 -36 4 -73z m-952 -156 c-12 -50 -42 -153 -67 -229 -50 -153 -50
-161 15 -162 36 0 37 -1 34 -35 -8 -79 -46 -109 -117 -96 -23 5 -35 3 -35 -4
0 -6 -4 -9 -9 -5 -5 3 -13 0 -17 -6 -4 -8 -3 -9 4 -5 7 4 12 1 12 -9 0 -10 -5
-13 -12 -9 -7 4 -8 3 -4 -5 10 -16 -53 -150 -76 -162 -17 -9 -18 -7 -12 17 4
15 20 61 36 102 16 42 27 80 25 87 -3 6 -22 12 -43 13 -22 1 -56 5 -76 8 l-38
6 0 61 c0 34 4 68 9 75 8 14 47 11 139 -9 24 -5 47 -7 52 -4 4 3 10 0 12 -6
11 -33 109 252 143 416 34 159 39 173 43 106 2 -30 -6 -93 -18 -145z m-4980
114 c0 -5 -5 -10 -11 -10 -5 0 -7 5 -4 10 3 6 8 10 11 10 2 0 4 -4 4 -10z
m-1296 -15 c-7 -16 -24 -21 -24 -6 0 8 7 13 27 20 1 1 0 -6 -3 -14z m-564 -32
c0 -14 5 -23 13 -21 19 4 57 -25 57 -43 0 -26 25 -41 56 -33 19 5 25 4 20 -5
-4 -6 -1 -11 9 -11 9 0 14 -4 10 -9 -3 -5 -1 -12 5 -16 5 -3 10 -2 10 3 0 5 7
9 15 9 8 0 15 -6 15 -14 0 -7 6 -13 13 -13 7 0 23 -12 36 -26 12 -14 28 -24
34 -21 16 6 35 -15 29 -32 -3 -8 0 -11 7 -7 6 4 11 1 11 -8 0 -10 6 -13 15
-10 10 4 15 0 15 -10 0 -9 9 -24 20 -33 11 -10 20 -23 20 -30 0 -7 5 -13 11
-13 11 0 40 -62 42 -91 1 -10 5 -15 9 -13 4 3 8 -1 8 -10 0 -8 4 -16 9 -18 4
-1 11 -14 15 -28 7 -24 6 -24 -8 -6 -9 11 -16 15 -16 10 0 -6 8 -19 18 -30 19
-20 29 -80 12 -69 -6 3 -10 1 -10 -4 0 -6 5 -11 11 -11 5 0 7 -5 4 -10 -4 -6
-11 -7 -17 -4 -8 5 -9 1 -5 -10 4 -9 3 -14 -2 -11 -5 3 -13 1 -16 -5 -4 -6
-15 -8 -26 -5 -13 4 -19 2 -19 -9 0 -9 -7 -16 -15 -16 -8 0 -15 7 -15 15 0 8
-4 15 -10 15 -5 0 -10 -9 -10 -21 0 -11 -4 -17 -10 -14 -5 3 -10 13 -10 21 0
23 -26 44 -54 44 -19 0 -26 5 -26 19 0 22 -24 35 -72 39 -10 1 -18 7 -18 13 0
6 7 9 15 5 8 -3 15 -1 15 4 0 10 -6 11 -40 14 -8 1 -14 9 -12 19 2 9 -3 17
-10 17 -8 0 -14 9 -15 21 -1 12 -10 28 -20 36 -17 13 -17 14 0 9 10 -3 17 0
17 8 0 8 -6 14 -12 13 -39 -1 -48 4 -48 28 0 14 -6 25 -13 25 -6 0 -17 16 -23
36 -9 28 -9 34 2 30 8 -3 11 0 7 9 -3 8 -9 13 -13 10 -11 -7 -42 43 -35 55 3
6 1 10 -4 10 -6 0 -11 9 -11 19 0 11 -7 27 -16 35 -11 11 -12 16 -3 16 10 0
10 3 1 12 -8 8 -15 8 -24 0 -10 -8 -13 -3 -14 23 0 23 3 32 13 28 7 -3 13 2
13 10 0 8 -9 17 -20 20 -11 3 -20 11 -20 17 0 8 4 9 13 3 19 -14 52 -10 52 7
0 8 -5 14 -12 13 -6 -1 -13 4 -16 11 -4 9 3 14 19 14 19 0 24 -6 24 -25z
m4190 -13 c0 -5 -2 -10 -4 -10 -3 0 -8 5 -11 10 -3 6 -1 10 4 10 6 0 11 -4 11
-10z m-3660 -45 c0 -12 -19 -12 -23 0 -4 9 -1 12 9 8 7 -3 14 -7 14 -8z m-420
-25 c0 -5 -4 -10 -10 -10 -5 0 -10 5 -10 10 0 6 5 10 10 10 6 0 10 -4 10 -10z
m7655 -96 c-36 -211 -127 -514 -205 -681 -42 -90 -113 -198 -136 -207 -21 -8
-18 -1 24 54 112 148 235 482 291 790 16 88 33 151 38 146 2 -2 -3 -48 -12
-102z m-3610 56 c3 -5 1 -10 -4 -10 -6 0 -11 5 -11 10 0 6 2 10 4 10 3 0 8 -4
11 -10z m-4181 -55 c3 -8 1 -15 -4 -15 -6 0 -10 7 -10 15 0 8 2 15 4 15 2 0 6
-7 10 -15z m975 -287 c0 -10 -2 -10 -6 0 -2 6 -13 12 -24 12 -18 0 -26 20 -12
33 8 9 43 -28 42 -45z m-65 33 c3 -5 -1 -11 -9 -15 -8 -3 -12 -12 -9 -20 7
-19 -15 -31 -29 -17 -9 9 -8 11 6 5 13 -5 18 -2 17 7 -6 41 9 65 24 40z m-49
-11 c3 -6 -1 -7 -9 -4 -18 7 -21 14 -7 14 6 0 13 -4 16 -10z m7122 -32 c28
-10 46 -28 27 -28 -24 0 -93 24 -88 31 7 12 21 11 61 -3z m-7057 -12 c0 -3 -4
-8 -10 -11 -5 -3 -10 -1 -10 4 0 6 5 11 10 11 6 0 10 -2 10 -4z m4004 -73 c5
-11 0 -22 -11 -31 -15 -11 -18 -11 -21 3 -8 38 20 61 32 28z m-5093 -15 c0
-10 2 -10 6 0 8 21 23 14 69 -32 24 -25 44 -42 44 -40 0 2 14 -8 31 -23 17
-16 35 -27 40 -25 8 2 13 -12 10 -30 0 -5 6 -8 14 -8 8 0 15 -4 15 -9 0 -4 11
-20 25 -35 14 -15 25 -32 25 -39 0 -7 9 -18 20 -25 11 -7 17 -18 14 -27 -4 -8
-1 -15 5 -15 6 0 11 -10 11 -22 0 -16 3 -19 8 -10 6 9 12 6 21 -12 8 -13 10
-29 7 -35 -4 -6 -2 -11 4 -11 15 0 65 -47 65 -63 1 -6 6 -11 13 -9 7 1 24 -10
37 -25 24 -28 24 -28 18 -4 -6 22 -5 23 9 10 9 -7 15 -18 15 -24 -1 -5 8 -9
19 -7 21 3 24 -9 15 -71 -1 -4 -11 -2 -23 5 -13 7 -26 11 -30 10 -5 -1 -8 2
-8 8 0 5 6 10 13 10 6 0 3 6 -8 12 -11 6 -26 19 -33 27 -11 14 -12 13 -7 -9
l6 -25 -18 22 c-15 18 -27 21 -68 20 -45 -2 -50 0 -47 18 3 16 1 18 -9 8 -18
-17 -29 -16 -29 3 0 8 -4 13 -9 9 -6 -3 -15 4 -21 15 -6 11 -20 20 -31 20 -11
0 -17 5 -14 10 3 6 -1 10 -9 10 -9 0 -16 7 -16 15 0 8 -5 15 -11 15 -8 0 -8 5
1 15 10 12 9 15 -6 16 -11 1 -23 1 -27 0 -5 -1 -6 3 -3 8 6 9 -30 51 -44 51
-3 0 -12 16 -20 35 -7 19 -17 32 -22 29 -4 -3 -13 7 -18 21 -5 14 -14 23 -20
20 -6 -4 -10 7 -10 27 0 25 -3 29 -10 18 -8 -12 -10 -11 -10 7 0 12 -4 24 -9
27 -13 8 -32 92 -25 110 7 19 34 21 35 4z m3734 2 c3 -5 1 -10 -4 -10 -6 0
-11 5 -11 10 0 6 2 10 4 10 3 0 8 -4 11 -10z m217 -12 c-16 -16 -15 -28 3 -28
9 0 15 6 14 13 -3 24 1 38 10 33 5 -4 8 -17 7 -31 -2 -14 3 -26 12 -30 10 -4
12 0 8 12 -4 10 -4 14 0 10 4 -4 14 -1 22 6 13 10 14 9 7 -3 -7 -12 -6 -13 6
-3 8 6 25 11 39 11 14 0 37 2 53 5 15 2 27 1 27 -3 0 -4 9 -7 20 -6 11 0 19
-3 18 -9 -1 -5 11 -12 27 -15 15 -3 30 -11 33 -19 3 -9 -1 -11 -15 -7 -13 4
-26 -2 -42 -20 -15 -17 -26 -22 -34 -16 -7 5 -29 12 -49 16 -21 4 -45 14 -54
23 -11 11 -18 13 -23 5 -8 -13 -70 -10 -92 4 -15 9 -29 12 -66 16 -13 1 -23 6
-23 10 0 4 -6 5 -14 2 -8 -3 -17 0 -22 7 -5 9 4 11 39 6 34 -5 47 -3 48 6 0 6
4 3 9 -8 8 -19 9 -19 9 2 1 12 7 23 14 26 18 6 23 -1 9 -15z m-144 -6 c2 -7
-6 -12 -17 -12 -21 0 -27 11 -14 24 9 9 26 2 31 -12z m1362 -12 c0 -24 -20
-37 -30 -19 -10 16 7 52 21 44 5 -4 9 -15 9 -25z m3880 -29 c22 -10 35 -23 36
-36 1 -11 -1 -13 -3 -5 -4 16 -71 50 -98 50 -8 0 -15 5 -15 11 0 12 26 5 80
-20z m-7930 3 c0 -11 4 -14 13 -7 6 5 26 10 42 11 25 1 27 0 10 -7 -18 -9 -17
-10 8 -10 30 -1 63 -15 85 -37 9 -10 10 -19 2 -33 -13 -25 -13 -41 0 -21 10
16 10 16 13 -44 1 -32 -28 -59 -58 -53 -14 2 -25 1 -25 -4 0 -13 -66 18 -94
44 -14 14 -26 29 -26 36 0 6 -4 11 -9 11 -5 0 -12 11 -15 25 -4 14 -11 25 -17
25 -6 0 -6 7 1 20 6 11 15 18 21 15 5 -4 9 1 9 10 0 9 5 13 10 10 6 -3 10 1
10 9 0 9 5 16 10 16 6 0 10 -7 10 -16z m3944 -13 c4 -5 3 -17 0 -26 -6 -15 -8
-14 -25 1 -15 14 -17 19 -7 26 17 10 26 10 32 -1z m88 -26 c-4 -25 -25 -34
-36 -16 -10 15 5 41 24 41 13 0 16 -6 12 -25z m1249 15 c0 10 2 11 6 3 2 -7
13 -13 23 -13 10 0 32 -13 48 -30 28 -27 28 -30 10 -36 -23 -7 -158 22 -182
39 -16 12 -15 13 5 14 12 1 25 7 29 13 4 6 14 8 23 4 11 -4 17 -1 17 7 0 11 3
11 10 -1 9 -13 10 -13 11 0z m1285 -2 c50 -18 52 -38 5 -38 -37 0 -51 12 -51
41 0 12 7 11 46 -3z m-2636 -63 c0 -8 -7 -15 -15 -15 -8 0 -15 7 -15 15 0 8 7
15 15 15 8 0 15 -7 15 -15z m3020 -16 c5 9 10 10 14 2 8 -12 -23 -110 -53
-170 l-22 -42 -29 21 c-17 12 -30 25 -30 30 0 5 -7 7 -15 4 -20 -8 -19 3 5 36
11 16 27 48 35 71 23 64 32 71 62 52 20 -13 26 -14 33 -4z m-1067 -35 c59 -25
107 -58 107 -76 0 -19 -50 -19 -77 0 -16 11 -47 25 -71 31 -47 13 -61 33 -42
56 16 19 10 20 83 -11z m-5273 -14 c0 -5 -4 -10 -10 -10 -5 0 -10 5 -10 10 0
6 5 10 10 10 6 0 10 -4 10 -10z m-30 -10 c0 -5 9 -10 19 -10 27 0 36 -31 14
-48 -14 -10 -15 -14 -4 -21 7 -5 9 -10 5 -12 -13 -6 -50 -61 -58 -87 -4 -12
-12 -22 -17 -22 -6 0 -7 -5 -3 -12 5 -8 2 -9 -10 -5 -13 5 -17 2 -14 -14 2
-16 -3 -23 -20 -25 -20 -4 -22 0 -18 29 2 17 9 45 15 60 6 16 9 33 5 38 -3 5
-1 9 3 9 5 0 15 16 22 36 7 19 19 38 27 41 8 3 12 9 9 13 -7 11 5 40 16 40 5
0 9 -4 9 -10z m7344 -32 c-4 -6 -10 -5 -15 3 -14 22 -10 33 6 19 8 -7 12 -17
9 -22z m-1126 -34 c-6 -21 -13 -32 -15 -23 -4 17 15 75 22 67 2 -2 -1 -22 -7
-44z m1104 -57 c-1 -12 -8 -42 -15 -67 -12 -35 -17 -41 -22 -27 -4 9 -5 27 -2
39 4 12 1 28 -5 35 -8 10 -4 18 13 33 20 16 21 19 7 20 -12 0 -18 8 -18 21 0
20 1 20 21 -5 12 -15 21 -37 21 -49z m-1658 33 c11 -11 -74 0 -94 12 -10 6 3
7 35 3 28 -4 54 -10 59 -15z m73 -5 c-4 -8 -11 -15 -17 -15 -14 0 -13 27 3 33
16 6 21 1 14 -18z m1523 -12 c0 -5 -4 -14 -9 -22 -6 -9 -4 -22 5 -37 10 -15
12 -24 5 -29 -6 -3 -11 -16 -11 -29 0 -33 -12 -40 -26 -14 l-12 23 -10 -25
c-6 -14 -14 -34 -17 -45 -5 -13 -9 -16 -12 -7 -4 10 -8 10 -19 1 -23 -19 -16
1 14 40 16 20 39 62 51 94 13 31 27 57 32 57 5 0 9 -3 9 -7z m-9097 -77 c7 7
42 -25 42 -38 0 -5 6 -13 14 -17 7 -5 10 -14 7 -20 -5 -7 1 -11 14 -11 16 0
20 -5 16 -15 -3 -8 -1 -15 4 -15 5 0 12 -16 16 -35 4 -21 10 -32 17 -28 7 4 8
0 3 -12 -4 -10 -2 -21 4 -25 6 -4 12 -16 13 -28 0 -12 8 -24 15 -27 11 -4 12
-8 2 -20 -9 -10 -9 -15 -1 -15 6 0 11 -5 11 -12 0 -9 -3 -9 -12 0 -16 16 -68
15 -68 0 0 -10 -2 -10 -9 0 -4 8 -11 12 -15 10 -4 -1 -14 8 -22 22 -14 24 -15
24 -11 2 3 -12 1 -20 -4 -16 -5 3 -9 10 -9 16 0 7 -10 22 -22 35 -12 13 -18
26 -15 30 4 3 14 -2 22 -13 8 -10 15 -14 15 -7 0 6 -12 21 -26 32 -15 12 -21
21 -15 21 7 0 9 5 6 10 -4 6 -11 7 -17 4 -6 -4 -8 1 -3 16 4 13 3 20 -2 17 -5
-3 -10 10 -10 29 -1 19 -6 40 -12 48 -6 7 -8 16 -4 20 4 4 1 11 -7 16 -8 6
-10 10 -4 10 7 0 15 12 18 26 l7 26 18 -21 c10 -11 21 -18 24 -15z m8128 -24
c-7 -2 -18 1 -23 6 -8 8 -4 9 13 5 13 -4 18 -8 10 -11z m728 -85 c-5 -20 -14
-37 -20 -37 -5 0 -2 16 6 36 8 20 15 39 15 42 0 3 2 3 5 1 2 -3 0 -22 -6 -42z
m-8172 11 c-3 -8 -6 -5 -6 6 -1 11 2 17 5 13 3 -3 4 -12 1 -19z m105 -22 c5
-8 8 -7 8 2 0 8 8 10 26 6 17 -4 25 -3 21 3 -3 5 1 10 9 10 8 0 13 -6 10 -13
-3 -8 2 -10 16 -6 17 4 20 2 14 -13 -5 -15 -4 -16 8 -6 17 14 31 -2 20 -21 -6
-10 -4 -10 8 0 13 11 15 9 15 -15 0 -16 -2 -22 -4 -15 -3 6 -9 9 -15 6 -6 -4
-14 0 -19 7 -7 11 -9 10 -9 -3 0 -10 -4 -18 -10 -18 -5 0 -10 -7 -10 -16 0
-14 -3 -14 -15 -4 -12 10 -15 9 -15 -6 -1 -18 -1 -18 -14 -1 -12 16 -14 16
-20 2 -3 -9 -10 -13 -16 -10 -6 4 -7 11 -4 17 4 6 -1 6 -14 -1 -15 -8 -23 -7
-32 4 -6 8 -8 20 -4 26 5 8 3 9 -5 5 -7 -5 -10 -14 -7 -22 3 -8 1 -14 -4 -14
-6 0 -11 3 -11 8 -12 66 8 113 44 104 12 -3 25 -10 29 -16z m6358 -26 c0 -5
-8 -10 -17 -10 -15 0 -16 2 -3 10 19 12 20 12 20 0z m-5443 -29 c-1 -11 -6
-17 -14 -14 -10 4 -11 9 -2 19 15 19 18 18 16 -5z m5403 10 c0 -12 -20 -25
-27 -18 -7 7 6 27 18 27 5 0 9 -4 9 -9z m-6190 -41 c0 -5 -4 -10 -10 -10 -5 0
-10 5 -10 10 0 6 5 10 10 10 6 0 10 -4 10 -10z m6335 -168 c-7 -29 -60 -94
-69 -85 -3 4 -6 1 -6 -5 0 -7 -4 -12 -10 -12 -5 0 -10 11 -10 25 0 16 -6 25
-15 25 -8 0 -15 4 -15 9 0 5 -9 13 -20 16 -23 7 -25 25 -9 70 11 30 14 32 61
29 35 -2 51 2 55 12 9 25 45 -55 38 -84z m695 59 c-8 -5 -31 -11 -50 -15 l-35
-6 35 14 c41 17 75 21 50 7z m1093 -19 c-4 -9 -13 -26 -21 -37 -13 -17 -14
-18 -8 -2 3 11 9 30 12 43 3 13 10 21 15 19 4 -3 5 -13 2 -23z m-8894 5 c8
-11 5 -14 -18 -14 -20 0 -28 4 -24 14 3 7 11 13 18 13 7 0 18 -6 24 -13z
m7132 -54 c-12 -20 -14 -14 -5 12 4 9 9 14 11 11 3 -2 0 -13 -6 -23z m374 -49
c10 1 21 8 23 14 6 18 22 15 22 -4 0 -20 -27 -47 -39 -39 -5 3 -22 -6 -37 -20
-15 -14 -23 -25 -19 -25 5 0 19 10 32 22 13 12 23 17 23 10 0 -11 -47 -52 -60
-52 -6 0 -7 102 -1 119 0 2 9 -3 19 -12 9 -9 26 -15 37 -13z m-85 -8 c0 -3 -4
-8 -10 -11 -5 -3 -10 -1 -10 4 0 6 5 11 10 11 6 0 10 -2 10 -4z m1381 -19
c-10 -9 -11 -8 -5 6 3 10 9 15 12 12 3 -3 0 -11 -7 -18z m-1257 -58 c-27 -30
-37 -22 -12 12 12 16 24 25 26 19 2 -6 -4 -20 -14 -31z m1212 -38 c-35 -69
-54 -93 -41 -50 9 28 68 129 73 125 2 -2 -13 -36 -32 -75z m-4475 -23 c3 7 16
8 39 2 19 -4 31 -8 26 -9 -5 -1 -3 -8 4 -16 7 -8 8 -15 3 -15 -6 0 -8 -12 -6
-27 3 -20 2 -24 -5 -14 -6 9 -12 10 -16 3 -4 -6 -14 -8 -23 -5 -12 5 -14 3 -9
-8 4 -8 1 -6 -7 4 -9 10 -18 18 -21 18 -22 -3 -26 3 -24 33 1 19 6 32 10 30 4
-3 8 1 8 8 0 10 2 10 9 -1 5 -8 10 -9 12 -3z m-151 -44 c0 -14 -4 -23 -10 -19
-5 3 -10 1 -10 -4 0 -6 7 -11 16 -11 8 0 12 -5 9 -11 -5 -7 -13 -4 -26 7 -10
9 -28 15 -42 12 -17 -3 -23 0 -23 13 0 11 4 15 11 10 10 -9 55 3 55 14 0 4
-10 3 -22 0 -18 -5 -20 -4 -8 4 28 20 50 13 50 -15z m3541 -14 c-26 -22 -39
-24 -61 -10 -12 8 -10 10 10 10 14 0 32 5 40 10 27 17 36 10 11 -10z m991
-111 c-118 -251 -243 -501 -249 -496 -6 6 5 29 158 345 60 123 109 227 109
231 0 9 23 32 27 27 2 -2 -19 -50 -45 -107z m-851 74 c-19 -36 -108 -103 -136
-103 -17 0 0 18 28 28 18 6 50 30 72 52 43 44 50 49 36 23z m-5317 -43 c3 -3
8 -21 12 -40 20 -106 6 -202 -45 -312 -82 -177 -101 -220 -101 -226 0 -3 -31
-70 -70 -148 -38 -79 -70 -150 -70 -159 0 -8 -4 -15 -9 -15 -5 0 -14 -15 -21
-32 -7 -18 -30 -69 -51 -113 -21 -44 -40 -87 -43 -95 -3 -8 -10 -22 -15 -30
-5 -8 -12 -22 -15 -30 -4 -8 -15 -28 -25 -45 -11 -16 -20 -38 -20 -47 -1 -10
-5 -18 -11 -18 -5 0 -10 -6 -10 -12 0 -14 -7 -28 -59 -118 -18 -30 -37 -67
-44 -82 -6 -16 -15 -28 -19 -28 -4 0 -8 -5 -8 -11 0 -6 -15 -31 -32 -57 -30
-44 -44 -67 -86 -147 -9 -16 -22 -36 -29 -43 -7 -7 -13 -20 -13 -28 0 -8 -4
-14 -10 -14 -5 0 -10 -5 -10 -11 0 -6 -16 -30 -35 -53 -19 -24 -35 -48 -35
-55 0 -6 -7 -14 -15 -17 -8 -4 -15 -10 -15 -15 0 -8 -21 -36 -65 -84 -11 -12
-30 -27 -43 -34 -13 -7 -21 -18 -19 -25 4 -9 -9 -18 -34 -26 -28 -10 -36 -16
-27 -22 10 -8 10 -9 -1 -6 -8 2 -15 14 -16 26 -2 24 19 47 34 38 5 -3 7 3 4
13 -3 13 2 24 16 33 12 7 21 17 21 22 0 5 8 15 18 23 9 8 12 12 5 9 -7 -4 -6
4 3 24 9 16 20 30 26 30 5 0 8 7 4 15 -3 8 -2 15 3 15 5 0 12 16 15 35 4 19
11 35 16 35 6 0 10 7 10 15 0 8 9 30 20 50 11 19 17 35 13 35 -4 0 -2 5 5 12
7 7 12 20 12 30 0 10 5 18 10 18 6 0 10 6 10 13 0 6 10 28 22 47 12 19 23 45
24 57 1 12 9 32 17 45 8 13 20 41 27 63 7 22 18 47 25 55 7 8 16 25 19 38 4
12 12 22 17 22 5 0 8 3 7 8 -2 8 24 65 33 72 9 7 69 174 69 193 0 9 5 19 10
22 6 3 10 12 10 20 0 12 35 90 74 165 40 76 91 189 151 335 50 122 73 175 89
205 8 14 22 53 31 88 10 34 22 65 26 68 5 3 9 12 9 20 0 20 58 144 68 144 4 0
19 10 33 23 24 20 88 31 103 17z m5760 -94 c-4 -18 -15 -28 -33 -32 -65 -15
-64 -13 -36 -46 27 -32 30 -45 15 -68 -8 -12 -19 -5 -58 38 -27 28 -57 52 -68
52 -38 0 -48 15 -34 50 9 22 17 29 29 25 35 -14 88 -15 136 -2 28 8 51 13 53
12 2 -2 0 -14 -4 -29z m-4772 -8 c-7 -7 -12 -8 -12 -2 0 6 3 14 7 17 3 4 9 5
12 2 2 -3 -1 -11 -7 -17z m4645 -150 l52 -38 -16 -45 -15 -46 -104 2 c-57 1
-104 5 -104 10 0 4 4 19 9 33 7 18 15 23 30 19 15 -4 24 3 36 28 17 31 17 33
-5 49 -19 14 -20 19 -9 43 l12 26 31 -21 c17 -12 54 -39 83 -60z m-98 -164
c47 -15 87 -27 88 -28 2 -2 -4 -24 -13 -49 l-16 -47 -51 -1 c-48 0 -50 -1 -32
-14 61 -43 59 -39 45 -81 -7 -21 -15 -42 -19 -46 -3 -4 -47 6 -96 21 -82 26
-90 31 -87 52 4 38 15 40 77 19 32 -11 60 -18 62 -16 2 2 -17 17 -42 32 -45
29 -50 38 -39 68 5 12 21 16 65 16 32 0 59 4 59 8 0 5 -21 14 -47 20 -69 18
-77 25 -64 51 7 11 14 21 17 21 4 0 45 -12 93 -26z m-733 -136 c-99 -157 -146
-227 -158 -234 -14 -9 -14 -9 104 169 107 160 138 197 54 65z m-1491 1 c10
-15 -1 -23 -20 -15 -9 3 -13 10 -10 16 8 13 22 13 30 -1z m2562 -85 c-40 -81
-53 -112 -71 -168 -4 -10 -9 -17 -12 -14 -2 3 5 31 16 61 29 77 100 221 106
214 3 -2 -15 -44 -39 -93z m-2775 52 c4 -6 18 -12 30 -12 21 -2 65 -15 108
-33 8 -3 45 -6 83 -6 37 0 67 -3 67 -7 0 -4 7 -8 16 -8 26 0 12 -79 -18 -102
-28 -21 -58 -23 -58 -3 0 8 -12 18 -27 21 -16 4 -36 15 -46 25 -10 11 -26 19
-36 19 -10 0 -24 7 -31 15 -7 8 -19 15 -28 15 -8 0 -30 10 -49 21 l-35 22 -23
-29 c-20 -24 -27 -27 -42 -18 -24 14 -45 58 -37 77 4 12 20 15 62 14 31 0 60
-6 64 -11z m263 4 c3 -6 -1 -7 -9 -4 -18 7 -21 14 -7 14 6 0 13 -4 16 -10z
m1125 -35 c0 -7 -57 -35 -72 -35 -7 0 1 9 17 20 28 19 55 26 55 15z m933 -87
c39 -28 76 -55 80 -59 5 -4 0 -27 -11 -52 l-20 -46 -99 6 c-54 3 -100 7 -102
9 -2 2 1 15 7 29 8 17 20 25 36 25 18 0 27 8 35 31 9 26 8 34 -8 48 -15 12
-17 21 -11 39 5 12 12 22 15 22 3 0 38 -23 78 -52z m-1982 -21 c-8 -8 -11 -7
-11 4 0 20 13 34 18 19 3 -7 -1 -17 -7 -23z m-223 -33 c-2 -9 -19 -22 -38 -30
l-35 -15 30 30 c32 34 48 40 43 15z m502 2 c0 -2 -8 -10 -17 -17 -16 -13 -17
-12 -4 4 13 16 21 21 21 13z m-1975 -16 c3 -5 -1 -10 -9 -10 -9 0 -16 5 -16
10 0 6 4 10 9 10 6 0 13 -4 16 -10z m1195 -5 c0 -10 -10 -15 -27 -15 -26 0
-26 1 -7 15 25 19 34 19 34 0z m185 6 c3 -5 1 -12 -5 -16 -5 -3 -10 1 -10 9 0
18 6 21 15 7z m211 -37 c-3 -9 -6 -19 -6 -24 0 -5 -14 -19 -32 -31 -27 -20
-31 -20 -25 -5 10 24 50 75 61 75 4 1 5 -6 2 -15z m-4044 -6 c-17 -17 -15 -31
3 -24 8 3 15 0 15 -6 0 -6 8 -17 18 -24 12 -10 13 -13 3 -14 -11 0 -10 -5 5
-22 10 -13 15 -20 10 -16 -11 10 -50 -28 -41 -41 3 -6 1 -11 -4 -11 -6 0 -11
8 -11 17 0 15 -1 15 -12 1 -7 -8 -27 -18 -45 -21 -26 -5 -33 -3 -38 13 -7 22
-25 27 -25 8 0 -9 -3 -9 -12 0 -8 8 -8 15 2 27 15 18 0 21 -18 3 -8 -8 -12 -8
-12 -1 0 6 7 13 15 17 8 3 15 12 15 20 0 8 13 23 30 32 21 13 26 21 17 27 -7
5 0 7 20 4 21 -2 34 1 37 10 3 7 13 13 23 13 13 0 14 -3 5 -12z m4381 -8 c-3
-12 -8 -19 -11 -16 -5 6 5 36 12 36 2 0 2 -9 -1 -20z m2144 -32 c-3 -7 -5 -2
-5 12 0 14 2 19 5 13 2 -7 2 -19 0 -25z m-452 -47 c67 -22 79 -30 77 -46 -7
-36 -20 -45 -53 -33 -33 11 -43 6 -53 -29 -6 -19 -2 -23 29 -29 33 -6 36 -9
30 -33 -4 -14 -9 -29 -13 -33 -4 -4 -49 7 -100 23 -85 28 -92 33 -86 52 10 35
20 40 59 27 42 -14 45 -12 48 25 2 23 -3 30 -28 38 -39 13 -37 10 -29 41 8 32
17 32 119 -3z m410 -131 c-15 -61 -29 -109 -31 -107 -3 2 7 55 22 116 14 62
28 110 31 108 2 -3 -8 -55 -22 -117z m-1955 51 c0 -6 -4 -13 -10 -16 -5 -3
-10 1 -10 9 0 9 5 16 10 16 6 0 10 -4 10 -9z m1004 -42 c14 -11 26 -25 26 -30
0 -5 -9 0 -20 11 -24 24 -78 26 -106 5 -23 -17 -34 -19 -34 -5 0 13 57 39 86
40 12 0 33 -9 48 -21z m-216 -23 c26 -13 54 -32 63 -42 20 -23 33 -113 19
-134 -9 -13 -10 -13 -10 0 0 8 -8 2 -19 -15 -37 -60 -86 -87 -95 -52 -4 15 3
31 22 52 15 16 18 22 6 12 -11 -9 -24 -14 -29 -10 -4 5 -5 3 -1 -4 8 -14 -10
-27 -19 -13 -4 7 -12 7 -25 0 -23 -12 -30 -13 -30 -1 0 5 9 11 19 14 10 2 26
16 35 30 21 32 39 90 24 81 -6 -4 -9 5 -7 22 2 16 0 35 -4 42 -10 15 5 16 21
0 6 -6 22 -13 34 -15 18 -2 14 3 -15 21 -69 42 -63 50 11 12z m-1604 -18 c-42
-71 -155 -200 -213 -242 -27 -20 -51 -36 -54 -36 -3 0 24 30 60 68 35 37 96
102 135 145 66 73 89 93 72 65z m2256 -53 c38 -30 71 -59 75 -64 3 -6 0 -31
-6 -56 l-12 -47 -101 7 c-56 4 -103 9 -105 11 -2 2 1 15 7 29 8 17 20 25 36
25 18 0 27 8 35 33 10 28 9 34 -7 47 -15 12 -17 21 -9 43 5 15 11 27 13 27 3
0 36 -25 74 -55z m-390 16 c0 -5 -7 -12 -16 -15 -14 -5 -15 -4 -4 9 14 17 20
19 20 6z m851 -18 c-8 -15 -10 -15 -11 -2 0 17 10 32 18 25 2 -3 -1 -13 -7
-23z m-857 -60 c-3 -36 -2 -43 5 -28 10 20 15 9 12 -25 -2 -21 -44 -100 -54
-100 -4 0 0 14 8 31 9 17 15 33 12 35 -2 2 -12 -14 -22 -36 -10 -22 -22 -40
-28 -40 -5 0 -7 6 -4 14 3 8 -1 17 -9 20 -8 3 -14 13 -14 22 0 13 -3 14 -14 5
-23 -19 -59 4 -50 32 16 52 24 67 38 67 7 0 16 7 20 15 3 8 10 15 15 15 6 0 8
-6 5 -14 -3 -8 -1 -17 5 -21 6 -3 11 -1 11 5 0 6 4 8 10 5 5 -3 15 5 22 19 19
43 36 32 32 -21z m873 5 c-3 -8 -6 -5 -6 6 -1 11 2 17 5 13 3 -3 4 -12 1 -19z
m-36 -19 c-5 -13 -10 -19 -10 -12 -1 15 10 45 15 40 3 -2 0 -15 -5 -28z
m-1451 -25 c-8 -8 -23 -20 -34 -25 -13 -6 -10 0 9 15 34 29 43 33 25 10z m190
0 c0 -8 -4 -12 -10 -9 -5 3 -10 10 -10 16 0 5 5 9 10 9 6 0 10 -7 10 -16z
m476 -50 c-4 -9 -9 -15 -11 -12 -3 3 -3 13 1 22 4 9 9 15 11 12 3 -3 3 -13 -1
-22z m780 -60 c-8 -21 -15 -34 -15 -28 -1 15 20 76 25 71 2 -2 -2 -21 -10 -43z
m-1068 -11 c-10 -2 -26 -2 -35 0 -10 3 -2 5 17 5 19 0 27 -2 18 -5z m1026 -42
c-4 -17 -9 -30 -11 -27 -3 2 -2 19 2 36 9 41 17 33 9 -9z m-863 0 c-17 -31
-69 -69 -108 -80 -38 -11 -61 -6 -27 4 52 17 85 37 105 65 25 33 46 41 30 11z
m-2136 -41 c-16 -16 -34 -30 -39 -30 -10 1 53 60 63 60 3 0 -8 -13 -24 -30z
m-89 -55 c-11 -8 -22 -12 -25 -9 -6 6 19 24 34 24 6 -1 1 -7 -9 -15z m1374 7
c0 -10 -65 -42 -83 -42 -7 0 6 11 28 24 44 27 55 30 55 18z m-276 -17 c-4 -8
-2 -21 3 -28 12 -16 15 -59 3 -52 -5 3 -9 13 -9 23 0 9 -3 29 -7 45 -4 17 -2
27 5 27 5 0 8 -7 5 -15z m-1144 -15 c0 -5 -7 -10 -16 -10 -8 0 -12 5 -9 10 3
6 10 10 16 10 5 0 9 -4 9 -10z m1032 -64 c-2 -10 -20 -46 -40 -79 -41 -68 -75
-83 -94 -41 -16 35 21 100 54 96 18 -2 28 5 36 24 14 30 49 30 44 0z m221 -33
c-27 -32 -60 -73 -73 -92 l-23 -33 23 7 c35 11 16 -9 -40 -44 -28 -17 -50 -27
-50 -21 0 5 6 13 14 17 8 5 33 36 55 71 44 68 118 152 133 152 6 0 -12 -26
-39 -57z m111 42 c-7 -17 -51 -31 -62 -20 -9 9 27 35 50 35 11 0 15 -5 12 -15z
m-124 -10 c0 -2 -9 -9 -20 -15 -16 -9 -20 -8 -20 5 0 8 9 15 20 15 11 0 20 -2
20 -5z m1827 -67 c-3 -8 -6 -5 -6 6 -1 11 2 17 5 13 3 -3 4 -12 1 -19z m-37
-149 c-34 -136 -61 -212 -88 -249 -28 -38 -42 -50 -57 -50 -6 0 -6 3 0 8 38
26 102 172 141 321 10 40 20 68 22 63 1 -5 -6 -47 -18 -93z m-2115 11 c3 -6 3
-19 0 -31 -5 -16 -10 -18 -21 -8 -18 15 -18 49 0 49 8 0 18 -5 21 -10z m1158
-91 c-17 -17 -37 -1 -22 17 8 10 15 12 23 4 7 -7 7 -13 -1 -21z m-319 0 c4 6
14 11 22 11 11 0 12 -4 4 -17 -18 -31 -63 -79 -56 -60 10 30 -3 19 -35 -30
-26 -41 -29 -44 -23 -18 l7 30 -24 -20 c-13 -11 -27 -24 -31 -30 -13 -17 -9
31 5 62 12 30 37 34 37 7 0 -26 15 -15 43 33 20 32 31 43 37 34 5 -9 10 -10
14 -2z m-41 -104 c-3 -9 -8 -14 -10 -11 -3 3 -2 9 2 15 9 16 15 13 8 -4z
m-103 -121 c0 -8 -5 -12 -10 -9 -6 4 -8 11 -5 16 9 14 15 11 15 -7z m-5125
-44 c-3 -5 -12 -10 -18 -10 -7 0 -6 4 3 10 19 12 23 12 15 0z m6370 -39 c10
-17 -12 -21 -25 -6 -10 12 -10 15 3 15 9 0 18 -4 22 -9z m-166 -87 c25 -13 35
-13 46 -4 23 19 17 1 -28 -85 -37 -71 -67 -104 -67 -75 0 6 -8 10 -17 8 -12
-2 -18 3 -17 14 1 10 -2 15 -7 12 -12 -7 1 55 17 86 13 25 13 25 14 3 0 -13 4
-23 10 -23 5 0 7 14 5 32 -4 28 0 48 9 48 2 0 17 -7 35 -16z"/>
<path d="M6557 8123 c-10 -10 -8 -33 2 -33 6 0 9 9 8 20 -1 23 -1 22 -10 13z"/>
<path d="M6890 7460 c0 -5 5 -10 10 -10 6 0 10 5 10 10 0 6 -4 10 -10 10 -5 0
-10 -4 -10 -10z"/>
<path d="M3420 6082 c0 -14 6 -22 16 -22 14 0 15 3 3 18 -7 9 -15 19 -16 21
-2 2 -3 -5 -3 -17z"/>
<path d="M3605 5671 c-1 -16 3 -27 7 -25 5 3 6 10 3 15 -4 5 -2 9 4 9 5 0 13
-4 16 -10 3 -5 12 -10 18 -10 7 0 -1 11 -17 25 -16 14 -30 25 -30 25 -1 0 -1
-13 -1 -29z"/>
<path d="M3370 5670 c0 -5 5 -10 11 -10 5 0 7 5 4 10 -3 6 -8 10 -11 10 -2 0
-4 -4 -4 -10z"/>
<path d="M3580 5630 c0 -11 4 -20 9 -20 5 0 7 9 4 20 -3 11 -7 20 -9 20 -2 0
-4 -9 -4 -20z"/>
<path d="M3470 5600 c0 -5 5 -10 10 -10 6 0 10 5 10 10 0 6 -4 10 -10 10 -5 0
-10 -4 -10 -10z"/>
<path d="M3345 5570 c-3 -5 -1 -10 4 -10 6 0 11 5 11 10 0 6 -2 10 -4 10 -3 0
-8 -4 -11 -10z"/>
<path d="M3354 5539 c-4 -8 1 -9 16 -4 19 6 22 4 17 -9 -8 -21 5 -20 19 2 9
15 7 17 -17 19 -16 1 -31 -3 -35 -8z"/>
<path d="M3400 5432 c0 -12 0 -25 -1 -29 0 -4 4 -9 9 -11 6 -2 9 9 8 23 -4 33
-16 46 -16 17z"/>
<path d="M3335 5370 c3 -5 8 -10 11 -10 2 0 4 5 4 10 0 6 -5 10 -11 10 -5 0
-7 -4 -4 -10z"/>
<path d="M7648 5693 c-29 -34 -30 -48 -2 -21 15 15 26 30 23 33 -3 3 -13 -3
-21 -12z"/>
<path d="M7577 5568 c-3 -7 -17 -39 -31 -70 -14 -32 -23 -58 -20 -58 7 0 65
132 60 137 -2 2 -6 -2 -9 -9z"/>
<path d="M9026 5144 c-9 -26 -16 -52 -15 -58 0 -6 9 13 20 43 10 30 17 56 15
58 -2 2 -11 -17 -20 -43z"/>
<path d="M5701 5134 c0 -11 3 -14 6 -6 3 7 2 16 -1 19 -3 4 -6 -2 -5 -13z"/>
<path d="M5730 5101 c0 -5 7 -12 16 -15 14 -5 15 -4 4 9 -14 17 -20 19 -20 6z"/>
<path d="M5732 5066 c7 -8 15 -12 17 -11 5 6 -10 25 -20 25 -5 0 -4 -6 3 -14z"/>
<path d="M7340 5018 c-31 -87 -69 -241 -56 -227 8 7 76 252 72 256 -2 2 -9
-11 -16 -29z"/>
<path d="M7477 4883 c-10 -9 -9 -23 2 -23 5 0 11 7 15 15 5 15 -5 20 -17 8z"/>
<path d="M7292 4709 c-12 -69 -71 -216 -72 -178 0 17 35 164 47 196 6 16 5 16
-10 4 -9 -7 -17 -24 -17 -36 0 -21 -5 -23 -92 -30 -51 -4 -102 -9 -113 -11
-11 -1 -58 -6 -105 -9 -165 -12 -288 -40 -194 -43 43 -2 136 -31 244 -77 l75
-32 -2 60 c-3 58 8 87 31 87 24 0 39 -20 41 -52 1 -18 3 -37 5 -43 6 -24 -2
-43 -22 -53 -22 -10 -22 -11 -3 -12 11 0 31 -10 44 -21 34 -28 19 -50 -45 -67
-27 -7 -69 -19 -94 -27 -74 -24 -99 -21 -200 27 -52 25 -116 51 -143 58 -26 7
-50 17 -53 21 -3 5 -23 -5 -45 -23 -49 -39 -41 -45 64 -52 52 -3 96 -14 144
-34 87 -37 99 -57 73 -124 -10 -26 -15 -50 -12 -52 4 -2 81 -36 172 -76 91
-40 191 -85 222 -101 64 -32 80 -36 72 -15 -4 9 4 16 24 21 27 6 59 32 76 62
4 7 1 25 -7 40 -50 95 -133 443 -106 443 4 0 9 -10 11 -22 3 -19 11 -9 46 48
23 38 42 75 42 80 0 5 -18 8 -39 6 l-40 -4 -3 59 -3 58 -13 -76z m-2 -571 c17
-11 22 -10 29 1 10 15 41 8 41 -8 0 -6 -11 -18 -25 -27 -14 -9 -25 -23 -25
-30 0 -22 -28 -28 -45 -10 -9 9 -19 32 -22 51 -6 39 9 46 47 23z m80 -72 c0
-24 -23 -41 -41 -30 -9 5 20 53 34 54 4 0 7 -11 7 -24z"/>
<path d="M7933 4590 c0 -36 2 -50 4 -32 2 17 2 47 0 65 -2 17 -4 3 -4 -33z"/>
<path d="M8902 4610 c0 -14 2 -19 5 -12 2 6 2 18 0 25 -3 6 -5 1 -5 -13z"/>
<path d="M7925 4509 c-4 -6 -5 -12 -2 -15 2 -3 7 2 10 11 7 17 1 20 -8 4z"/>
<path d="M7411 4134 c0 -11 3 -14 6 -6 3 7 2 16 -1 19 -3 4 -6 -2 -5 -13z"/>
<path d="M6796 4117 c-9 -12 -17 -38 -18 -57 l-3 -34 245 -43 c281 -48 360
-54 235 -18 -67 19 -236 85 -407 159 -36 16 -38 15 -52 -7z"/>
<path d="M7350 3940 c0 -6 7 -10 15 -10 8 0 15 2 15 4 0 2 -7 6 -15 10 -8 3
-15 1 -15 -4z"/>
<path d="M4606 3875 c4 -8 8 -15 10 -15 2 0 4 7 4 15 0 8 -4 15 -10 15 -5 0
-7 -7 -4 -15z"/>
<path d="M4570 3820 c0 -5 5 -10 11 -10 5 0 7 5 4 10 -3 6 -8 10 -11 10 -2 0
-4 -4 -4 -10z"/>
<path d="M8971 3784 c0 -11 3 -14 6 -6 3 7 2 16 -1 19 -3 4 -6 -2 -5 -13z"/>
<path d="M9001 3784 c0 -11 3 -14 6 -6 3 7 2 16 -1 19 -3 4 -6 -2 -5 -13z"/>
<path d="M8981 3723 c-10 -26 -10 -27 4 -9 8 11 15 23 15 28 0 15 -7 8 -19
-19z"/>
<path d="M5562 2968 c2 -12 10 -23 18 -26 12 -3 12 -2 3 8 -6 7 -9 19 -6 26 3
8 0 14 -7 14 -6 0 -10 -10 -8 -22z"/>
<path d="M5535 2960 c3 -5 8 -10 11 -10 2 0 4 5 4 10 0 6 -5 10 -11 10 -5 0
-7 -4 -4 -10z"/>
<path d="M5565 2800 c-3 -5 -1 -10 4 -10 6 0 11 5 11 10 0 6 -2 10 -4 10 -3 0
-8 -4 -11 -10z"/>
<path d="M1640 5579 c0 -5 5 -7 10 -4 6 3 10 8 10 11 0 2 -4 4 -10 4 -5 0 -10
-5 -10 -11z"/>
<path d="M2072 5570 c0 -14 2 -19 5 -12 2 6 2 18 0 25 -3 6 -5 1 -5 -13z"/>
<path d="M2340 5550 c0 -5 5 -10 11 -10 5 0 7 5 4 10 -3 6 -8 10 -11 10 -2 0
-4 -4 -4 -10z"/>
<path d="M2055 5519 c4 -23 2 -26 -20 -23 -14 1 -23 -2 -20 -6 3 -5 12 -7 20
-3 8 3 15 0 15 -5 0 -6 -6 -12 -12 -15 -7 -2 -3 -2 9 -1 26 5 40 -13 16 -19
-15 -4 -15 -5 2 -6 11 0 27 4 35 9 13 8 12 10 -2 10 -10 0 -18 5 -18 10 0 6 5
10 11 10 5 0 7 5 3 11 -4 8 -9 7 -15 -2 -7 -11 -9 -11 -9 2 0 8 5 20 12 27 9
9 9 12 0 12 -7 0 -12 -6 -13 -12 0 -7 -5 -4 -10 7 -8 17 -9 16 -4 -6z"/>
<path d="M2348 5523 c7 -3 16 -2 19 1 4 3 -2 6 -13 5 -11 0 -14 -3 -6 -6z"/>
<path d="M2063 5423 c14 -4 16 -8 6 -19 -7 -8 -7 -14 -1 -14 12 0 23 26 15 34
-4 3 -13 5 -22 5 -12 -1 -12 -2 2 -6z"/>
<path d="M1720 5396 c0 -8 4 -17 9 -20 5 -4 7 3 4 14 -6 23 -13 26 -13 6z"/>
<path d="M2073 5373 c-17 -6 -17 -20 0 -26 8 -3 13 3 13 14 0 11 0 19 -1 18 0
0 -6 -3 -12 -6z"/>
<path d="M2025 5329 c-4 -6 -4 -13 -1 -16 3 -4 6 -2 6 4 0 6 10 9 23 6 18 -4
19 -3 7 6 -19 14 -27 14 -35 0z"/>
<path d="M2040 5295 c0 -8 7 -11 20 -8 22 6 19 15 -5 19 -8 1 -15 -4 -15 -11z"/>
<path d="M2121 5274 c0 -11 3 -14 6 -6 3 7 2 16 -1 19 -3 4 -6 -2 -5 -13z"/>
<path d="M1856 4085 c-9 -26 -7 -32 5 -12 6 10 9 21 6 23 -2 3 -7 -2 -11 -11z"/>
<path d="M5405 4581 c-3 -5 -1 -12 5 -16 5 -3 10 1 10 9 0 18 -6 21 -15 7z"/>
<path d="M2528 4553 c7 -3 16 -2 19 1 4 3 -2 6 -13 5 -11 0 -14 -3 -6 -6z"/>
<path d="M2025 4050 c-3 -5 -1 -10 4 -10 6 0 11 5 11 10 0 6 -2 10 -4 10 -3 0
-8 -4 -11 -10z"/>
<path d="M9386 3243 c-3 -3 -6 -15 -6 -25 0 -14 8 -18 35 -18 19 0 35 2 35 4
0 10 -58 45 -64 39z"/>
<path d="M9206 2763 c-16 -16 -3 -31 29 -35 19 -2 35 -1 35 2 0 10 -57 40 -64
33z"/>
<path d="M8414 2268 l-19 -23 23 19 c12 11 22 21 22 23 0 8 -8 2 -26 -19z"/>
<path d="M8427 2255 c-15 -14 -24 -25 -19 -25 5 0 19 11 32 25 30 32 23 32
-13 0z"/>
<path d="M9037 2330 c-3 -12 0 -20 8 -20 7 0 28 -3 46 -6 l34 -5 -30 25 c-36
31 -51 33 -58 6z"/>
<path d="M1790 8485 c0 -45 14 -45 17 0 2 19 -2 35 -7 35 -6 0 -10 -16 -10
-35z"/>
<path d="M1671 8284 c0 -11 3 -14 6 -6 3 7 2 16 -1 19 -3 4 -6 -2 -5 -13z"/>
<path d="M1430 7890 c-9 -6 -10 -10 -3 -10 6 0 15 5 18 10 8 12 4 12 -15 0z"/>
<path d="M1430 7800 c-9 -6 -10 -10 -3 -10 6 0 15 5 18 10 8 12 4 12 -15 0z"/>
<path d="M1424 7765 c-10 -8 -14 -14 -9 -15 15 0 40 18 34 24 -3 3 -14 -1 -25
-9z"/>
<path d="M1230 7720 c0 -5 5 -10 11 -10 5 0 7 5 4 10 -3 6 -8 10 -11 10 -2 0
-4 -4 -4 -10z"/>
<path d="M1180 7640 c0 -5 5 -10 11 -10 5 0 7 5 4 10 -3 6 -8 10 -11 10 -2 0
-4 -4 -4 -10z"/>
<path d="M1180 7499 c0 -5 5 -7 10 -4 6 3 10 8 10 11 0 2 -4 4 -10 4 -5 0 -10
-5 -10 -11z"/>
<path d="M1105 7330 c3 -5 8 -10 11 -10 2 0 4 5 4 10 0 6 -5 10 -11 10 -5 0
-7 -4 -4 -10z"/>
<path d="M990 7180 c0 -5 5 -10 10 -10 6 0 10 5 10 10 0 6 -4 10 -10 10 -5 0
-10 -4 -10 -10z"/>
<path d="M288 6043 c7 -3 16 -2 19 1 4 3 -2 6 -13 5 -11 0 -14 -3 -6 -6z"/>
<path d="M150 5770 c0 -5 5 -10 11 -10 5 0 7 5 4 10 -3 6 -8 10 -11 10 -2 0
-4 -4 -4 -10z"/>
<path d="M10 5419 c0 -5 5 -7 10 -4 6 3 10 8 10 11 0 2 -4 4 -10 4 -5 0 -10
-5 -10 -11z"/>
<path d="M68 5323 c6 -2 18 -2 25 0 6 3 1 5 -13 5 -14 0 -19 -2 -12 -5z"/>
</g>
</svg>
