<svg xmlns="http://www.w3.org/2000/svg" xmlns:xlink="http://www.w3.org/1999/xlink" viewBox="0,0,256,256" width="100px" height="100px"><g fill="#18d26e" fill-rule="nonzero" stroke="none" stroke-width="1" stroke-linecap="butt" stroke-linejoin="miter" stroke-miterlimit="10" stroke-dasharray="" stroke-dashoffset="0" font-family="none" font-weight="none" font-size="none" text-anchor="none" style="mix-blend-mode: normal"><g transform="scale(5.12,5.12)"><path d="M25,2c-12.69071,0 -23,10.3093 -23,23c0,12.6907 10.30929,23 23,23c12.69071,0 23,-10.3093 23,-23c0,-12.6907 -10.30929,-23 -23,-23zM25,4c11.60983,0 21,9.39017 21,21c0,11.60983 -9.39017,21 -21,21c-11.60983,0 -21,-9.39017 -21,-21c0,-11.60982 9.39017,-21 21,-21zM20.5,15c-1.92119,0 -3.5,1.57881 -3.5,3.5v8c0,0.84081 -0.65919,1.5 -1.5,1.5h-5.5v2h5.5c1.92119,0 3.5,-1.57881 3.5,-3.5v-8c0,-0.84081 0.65919,-1.5 1.5,-1.5c0.84081,0 1.5,0.65919 1.5,1.5v13c0,1.92119 1.57881,3.5 3.5,3.5c1.92119,0 3.5,-1.57881 3.5,-3.5v-8c0,-0.84081 0.65919,-1.5 1.5,-1.5c0.84081,0 1.5,0.65919 1.5,1.5v3c0,1.92119 1.57881,3.5 3.5,3.5h4.5v-2h-4.5c-0.84081,0 -1.5,-0.65919 -1.5,-1.5v-3c0,-1.92119 -1.57881,-3.5 -3.5,-3.5c-1.92119,0 -3.5,1.57881 -3.5,3.5v8c0,0.84081 -0.65919,1.5 -1.5,1.5c-0.84081,0 -1.5,-0.65919 -1.5,-1.5v-13c0,-1.92119 -1.57881,-3.5 -3.5,-3.5z"></path></g></g></svg>